
<svg xmlns="http://www.w3.org/2000/svg" version="1.1" xmlns:xlink="http://www.w3.org/1999/xlink" preserveAspectRatio="none" x="0px" y="0px" width="1200px" height="800px" viewBox="0 0 1200 800">
<defs>
<g id="Layer3_0_FILL">
<path fill="#FFF655" stroke="none" d="
M 665.9 430.85
Q 663.1609375 429.309375 658.95 430.75 657.5626953125 430.66640625 656.35 430.75 655.939453125 430.6607421875 655.5 430.55
L 619.4 430.55
Q 616.5287109375 430.1578125 613.35 431.15 611.73125 430.862890625 610.4 432.4 604.6005859375 435.268359375 597.85 442.4 593.1 447.4 589.8 452.7 586.6 457.75 586.6 460 586.6 465.95 586.75 467.35 587.1 471.1 588.65 474 592.2255859375 480.661328125 606.2 489.1 606.1 489.775390625 606.1 490.6
L 606.75 492.5
Q 608 494.5 611.1 494.5 611.6962890625 494.5 612.4 494.1 614.1345703125 496.1884765625 615.05 498.6 615.251953125 499.15078125 615.45 499.75 611.6806640625 499.45 607.05 499.45 595.2 499.45 583.3 503 581.5724609375 503.5166015625 580.1 504 576.844921875 500.5 573.8 500.5 571.95 500.5 571.2 502.05 570.85 502.8 570.85 503.75 571.953125 505.6943359375 572.95 507.5 572.6 507.941015625 572.6 508.35 572.6 509.1552734375 577.7 515.55 586.240625 529.75 588.05 529.75 588.1009765625 529.75 590.65 528.85 591.596875 529.35 592.3 529.35 595.55 529.35 604.9 523.9 614.65 518.25 614.85 518.2
L 646.95 518.45
Q 650.5 519.65 660.4 523 669.95 525.8 677.8 525.8 683.112109375 525.8 687.1 525 687.84921875 527.35 689.75 527.35 693.2220703125 527.35 695.75 521.15 696.684765625 520.3568359375 697.35 519.4 699.4 516.4 699.4 508.35 700.15 505.9 699.2 503.7 699.1490234375 503.5861328125 699.1 503.45 698.7900390625 501.1455078125 697.9 500.75 697.2873046875 500.4892578125 696.3 500.8 693.598828125 499.45 688.75 499.45 683.55 499.45 673.35 502.65 671.7375 503.1533203125 670.15 503.55 670.15 503.0076171875 670.15 502.3 670.15 499.6 666.65 496.05 664.2611328125 493.6611328125 663.5 493.85 662.35 482.433203125 662.35 479 662.35 477.5 662.65 476.5 663.1 475.45 663.3 474.75 669.2 475.7 672.1 471.05 673.7 468.5 675.9 463.35 677.0462890625 463.708203125 678.9 464.6 679.831640625 466.4998046875 683.25 469.3 688.45 473.55 693.05 473.55 693.6685546875 473.55 694.2 473.3 694.3986328125 473.4333984375 694.6 473.55 709.55 481.85 717.7 481.85 720.55 481.85 722.5 480.7 725.05 479.2 725.05 476.05 725.05 473.75 710.35 465.6 690.45 454.6 690.4 454.55 686.8 452.15 683 448.2 678.95 443.8 676.7 441.65 673.416015625 438.4876953125 669.3 436.05 668.4494140625 432.2736328125 665.9 430.85
M 622.95 441.75
L 625.9 441.8
Q 625.615234375 442.42890625 625.45 443.15 623.66328125 442.42578125 622.95 441.75
M 655.95 389.7
Q 655.95 383.8 650.55 380.15 645.55 376.8 638.65 376.85 631.5 376.95 626.7 380.65 621.3 384.9 621.3 392.45 621.3 392.75 621.3 395.85 621.401953125 397.2576171875 621.65 398.55 619.65 400.4171875 619.65 402.3 619.65 402.35 620.5 406.6 621.9 410.85 624.65 410.85 627.0068359375 410.85 627.45 408.1 631.458984375 410.85 637.9 410.85 646.95 410.85 652.2 401.85 655.95 395.3 655.95 389.7 Z"/>
</g>

<g id="Layer2_0_FILL">
<path fill="#000000" fill-opacity="0.3803921568627451" stroke="none" d="
M 658.25 525.6
Q 660.0810546875 525.272265625 661.7 525.05 665.1779296875 525.5 668.8 525.5 671.005859375 525.5 673.05 525.4 670.92421875 524.9962890625 668.7 524.4 668.6337890625 524.4 668.55 524.4 649.4177734375 524.4 638.75 508.7 636.929296875 507.334765625 635.8 507.2 634.79296875 505.45390625 634 503.65 631.7634765625 502.1888671875 630.25 499 628.5 493.1 628.5 493 628.5 489.1771484375 630.35 486.1 630.4427734375 484.554296875 630.9 483.5 630.6787109375 482.162890625 630.5 480.75 630.5212890625 481.5240234375 630.55 482.35 630.5025390625 482.9421875 630.55 484 628.241796875 486.2833984375 626 489.5 623.9 492.5 623.9 493.25 623.9 493.4359375 624.15 495.45 622.26171875 497.4796875 621.4 498.4 618.51484375 498.00546875 617.4 498.05 615.35 498.05 615.35 499.8 615.35 501.5029296875 616.85 502.95 614.089453125 502.39609375 612.55 502.1 603.7 500.45 603.7 504.55 603.7 509.5 607.05 514.2 611.35 520.35 618.9 520.35 621.5986328125 520.35 623.9 520.25 623.7875 520.2125 623.7 520.15 623.2 519.85 623.2 518.3 623.2 517.741015625 623.55 517.1 625.2255859375 518.616796875 627.3 519.4 626.8533203125 519.8591796875 626.2 520.15 627.1568359375 520.11796875 628 520.05 628.010546875 519.8640625 628 519.65 630.1322265625 520.35 632.7 520.35 634.5 520.35 635.85 519.05 636.55 518.4 637.2 517.75 638.0544921875 517.75 642.15 518.4 643.035546875 518.926171875 644 519.45 646.8115234375 520.96875 649.75 522.1 650.076171875 522.5962890625 650.45 523.2 652.65 526.4 654.1 526.4 654.2 526.4 658.25 525.6
M 626.55 378.15
Q 623.3 382.05 620.95 387.05 618.45 392.55 618.45 396.6 618.45 396.8 618.5 399.85 618.932421875 401.9765625 620.7 402.55 620.7193359375 402.7560546875 620.75 402.95 621.408203125 405.527734375 622.45 406.7 622.4685546875 406.9578125 622.5 407.25 623.023828125 408.9 624.2 409.65 625.59296875 413.8923828125 627.75 415.75 627.6208984375 415.0580078125 627.5 414.3 627.1888671875 412.46171875 627.05 410.4 628.1404296875 410.38671875 629 409.85 631.8017578125 416.5 637.5 416.5 638.55 416.5 639.1 416.05 639.45 415.8 640.1 415 639.703125 414.634765625 639.3 414.25 634.8580078125 411.97890625 632.25 405.65 630.95 402.55 630.25 398.8 629.85 395.7 629.85 395.65 629.85 382.55 638.2 377.3 639.84609375 376.2380859375 641.35 375.85 642.75 373.43046875 642.75 372.8 642.75 370.65 640.3 372.25 637.85 373.85 634.9 377.95 633.60859375 379.7318359375 632.5 381.5 633.7513671875 379.0263671875 635.15 376.8 634.9796875 376.858203125 634.75 376.95 634.653515625 376.9896484375 634.55 377 634.5423828125 376.9015625 634.5 376.75 634.6 376.4712890625 634.6 376.25 634.6 375.5 634.45 375.3 634.25 375.05 634.25 375 634.1677734375 375.0296875 634.05 375.05 633.4619140625 373.7365234375 632.1 373.9 629.85 374.2 626.55 378.15
M 687.2 527.55
Q 686.795703125 527.51640625 686.4 527.4 686.366015625 527.61640625 686.3 527.8 686.7630859375 527.710546875 687.2 527.55
M 682.1 526.3
Q 681.86640625 526.3 681.6 526.3 682.21796875 527.25 683.8 527.25 684.20703125 527.25 685.05 527 684.3892578125 526.6916015625 683.9 526.25 683.003125 526.3 682.1 526.3
M 605 518.05
Q 604.155078125 516.870703125 603.45 515.9 603.45 515.459375 603.45 515 603.45 510.1 599.95 506.55 596.85 503.4 592.3 502.55 587.8 501.65 584.65 503.45 584.3259765625 503.63984375 584 503.85 583.4361328125 503.85 582.85 503.85 582.35 501.876171875 582.35 501.35 582.35 500.270703125 582.4 499.25 579.34375 498.3615234375 576.85 498.5 571.9 498.85 571.9 503.5 571.9 504.008203125 574.05 507.3 574.0859375 507.365234375 574.1 507.4 576.218359375 510.628515625 580.25 516.35 582.2994140625 519.27265625 584 521.5 583.7962890625 521.801953125 583.55 522.15 582.25 524.05 582.25 524.4 582.25 524.5 583.25 526.4 584.8 528.3 587.8 528.3 588.8302734375 528.3 589.85 528.2 592.14765625 530.1 594.7 530.1 599.303125 530.1 601.5 525.9 601.669140625 525.8599609375 601.85 525.8 608.15 523.75 608.15 523.25 608.15 522.4 605 518.05
M 621.9 429.85
Q 621.9 428.1673828125 621.3 427.5 621.477734375 427.408984375 621.65 427.3 621.353515625 427.2990234375 621.05 427.3 620.730859375 427.05 620.25 427.05 619.52734375 427.05 618.65 427.55 617.079296875 428.128515625 616.55 429.55 615.5814453125 430.696875 614.75 431.95 614.5634765625 431.96015625 614.35 431.95 614.0263671875 431.53046875 613.55 431.3 612.15 430.65 610.15 431.75 609.845703125 431.9173828125 609.55 432.1 609.0193359375 431.3748046875 608.1 431.15 606.15 430.6 603.25 432.55 600.35 434.45 598.35 437.55 596.1 441.05 596.1 444.45 596.1 446.15 596.4 446.8 596.551171875 447.1646484375 596.75 447.45 595.5767578125 446.6404296875 594.35 446.25 588.062890625 444.30390625 588.05 455.1 587.264453125 455.287890625 586.6 456.1 585.2 457.85 585.2 461.7
L 585.45 466
Q 586.3189453125 469.551171875 588.95 470.4 589.78515625 474.09375 591.2 475.3 591.39375 476.2533203125 591.6 477.15 592.8861328125 482.671875 594.75 486.3 595.4087890625 486.4927734375 596 486.85 598.1306640625 488.17109375 598.45 491.1 600.9861328125 493.25 604.2 493.25 605.3861328125 493.25 606.3 492.65 607.1685546875 493.85 608.75 493.85 609.4646484375 493.85 610.3 493.3 611.2310546875 494 612.75 494 615.4984375 494 617.35 490.75 620.4787109375 487.5271484375 621.35 484.55 621.75 483.2 621.75 477.1 621.75 474.8361328125 619.35 468.35 618.9537109375 466.1740234375 617.7 463.95 617.6560546875 463.840234375 617.6 463.7 614.760546875 456.5841796875 613.85 459.1 612.62421875 457.95859375 611.2 457.1 609.1970703125 455.8517578125 607.55 455.55 607.3455078125 455.230859375 607.1 454.9 606.2314453125 453.7138671875 605.2 452.7 605.8044921875 453.15 606.8 453.15 608.1568359375 453.15 608.95 451.5 608.978125 451.6373046875 609 451.75 610.4 455.75 613.7 455.75 615.95 455.75 616.8 453.85 617.25 452.9 617.25 451.7 617.25 445.745703125 613.7 443.3 615.1677734375 441.2435546875 617.2 438.15 621.9 431 621.9 429.85
M 604.25 449.75
Q 604.25 449.85 604.35 451.5 604.4935546875 452.0265625 604.8 452.35 603.5396484375 451.29453125 602.05 450.5 600.3931640625 449.6294921875 599 449.4 598.836328125 449.2314453125 598.65 449.05 598.309375 448.709375 597.95 448.4 598.622265625 448.7037109375 599.5 448.8 600.0796875 449.8 601.35 449.8 601.7 449.8 602.55 449.7 603.1 449.65 604.25 449.75
M 604.65 467.6
Q 605.947265625 467.6 606.9 467.1 608.9185546875 468.8623046875 611.55 469.75 611.7 471.5 611.65 475.95 611.880078125 477.5603515625 612.6 478.75 612.4779296875 481.0466796875 612.35 482.85
L 609.75 487.7
Q 609.43046875 487.7830078125 609.05 487.9 608.313671875 488.1232421875 607.75 488.4 605.3708984375 484.7857421875 603 480.5 597.75 471.15 597.75 463.35 597.75 463.1685546875 597.75 463 600.3908203125 467.6 604.65 467.6
M 631.75 457.85
Q 631.6904296875 457.869921875 631.6 457.9 629.85 458.5 628.6 460.45 627.2 462.5 627.2 465 627.2 467.3 628.85 472.4 629.445703125 474.2638671875 630.05 475.75
L 629.85 471.65
Q 629.85 463.853515625 631.75 457.85 Z"/>
</g>

<g id="Layer1_0_FILL">
<path fill="#000000" stroke="none" d="
M 731.1 468.1
Q 730.0951171875 467.3517578125 729.5 467.35 727.4888671875 465.9296875 724.2 464.4 713.4 460.1 708.9 457.9 703.75 455.4 695.8 452.65 695.2 451.65 694.65 450.35 694.4 450 694.1 449.65 692.35 448.05 690 445.25 684.25 437.85 682.65 436 680.2 433.3 678.3 431.15 677.05 429.75 676 428.6 675.95 428.7 675.9 428.9 675.5 428.45 675.05 427.95 674.55 427.4 674 426.85 673.61953125 426.452734375 673.25 426.1 671.833203125 425.30546875 669.75 424.75 667.858203125 424.2470703125 666.55 423.9 666.326953125 423.9216796875 666.1 423.95 664.4 423.9 662.95 423.9 662.2 423.9 661.55 423.9 659.2 423.25 654.7 423.1 645.7404296875 423.1890625 643.65 423
L 634.35 423
Q 633.3591796875 423.288671875 632.25 423.15 632.194140625 423.1427734375 632.15 423.1
L 631.75 423.25 625.5 423.35
Q 616.4 423.9 609.75 425 606.8263671875 425.5083984375 605.25 425.75 605.005859375 426.0453125 604.75 426.35 604.330859375 426.552734375 603.9 426.75 599.9412109375 426 592.05 436.6 588.45 441.4 585.4 446.8 582.55 451.75 582.55 452.9 582.55 453.2779296875 582.6 453.65 581.3810546875 454.744140625 580.65 457.95 579.9 461.3 579.9 465 579.9 465.1 581.15 472 582.2923828125 476.6033203125 583.65 478.1 584.103515625 479.16953125 584.65 479.9 585.0466796875 480.1935546875 585.45 480.5 585.823828125 481.1001953125 588.6 483.5 588.928515625 483.7873046875 590.55 485.45 590.6783203125 485.7361328125 590.8 486 590.857421875 486 590.9 486 591.473828125 486.43046875 592.1 486.9 594.15 488.7 597.05 490.6 597.161328125 490.7236328125 597.25 490.8 598.1837890625 491.171484375 598.8 491.75 600.6134765625 492.79453125 602.4 494.4 604.9650390625 495.3388671875 605.75 495.75 605.6 496.25 604.85 496.25 604.156640625 496.25 603.45 496.2 603.3220703125 496.25 603.1 496.25 603.0068359375 496.19296875 602.9 496.1 601.1041015625 495.901171875 599.3 495.25 599.2837890625 495.25 599.25 495.25 597.4 495.25 596.75 495.75 596.25 496.1 596.25 496.95 596.25 496.9935546875 596.25 497.2 596.1150390625 497.6275390625 595.9 497.95 595.85 497.9 595.75 497.9 595.25 497.75 594.65 497.6 594.6 497.65 594.5 497.75 593.05 497.45 591.05 497.25 589.05 497.05 587.6 497 587.15 496.95 586.65 496.85 584.5 496.55 579.6 495.85 574.45 495.05 572.6 494.9 571.35 494.95 570.15 495.05 569.35 495.05 568.5 495.15 566.35 495.3 564.3 495.5 564.15 495.7 563.95 495.9 562.3 497.85 562.3 499.45 562.3 501.65 563.2 504.15 563.95 505.45 564.15 505.75 565.15 507.65 567.05 511.2 568.75 514.25 570.35 516.75 572.2 519.75 578.05 528.35 578.65 529 579.3 529.65 579.55 530 579.85 530.45 582.3 534.05 583.25 534.05 583.35 534.05 583.45 534.05 584.1 534.65 585 534.65 585.15 534.65 585.35 534.65 586 534.9 587 534.9 587.1 534.9 587.55 534.7 590.3 534.7 594.75 532.9 595.85 532.45 597.4 531.85 601.2 530.55 607.1 528.2 607.2 528.15 607.25 528.15 609.75 527.25 612.5 526.4 620.5 524.1 624.15 524.35 624.5 524.2 624.85 524.15 626.95 523.65 628.05 524.05 629.8 523.7 632.5 524.15 635 524.6 638.2 525.6 640.35 526.05 645.5 527.25 648.8 528 651.55 528.55 655.7 529.2 661.7 530.05 670.55 531.3 675.35 532.05
L 678.1 532.5
Q 679.75 532.7 681.55 533
L 683.45 533
Q 684.05 533.25 684.65 533.5 686.45 533.8 688.4 534.15 689.5 534.3 696.4 535.15 697.95 533.7 699.5 529 700.25 526.75 701.8 520.3 701.85 520.15 701.9 520 704.5 513.05 704.55 512.9 705.7 509.75 706 508.9 706.85 506.5 707.15 504.9 707.4 503.6 708.2 502.35 708.7205078125 500.61484375 709.05 499.3 709.041796875 498.555859375 709 497.8 708.7009765625 497.22109375 708.25 496.65 707.7244140625 495.984375 707.35 495.55
L 707.35 495.55
Q 707.25 495.6 707.2 495.6 706.2 494.55 703.1 494.6 702.9 494.6 702.75 494.6 702.35 494.55 702 494.5 701.5 494.6 701 494.75 700.75 494.75 700.6 494.8 696.8 494.5 690.1 495.45 689.65 495.55 689.25 495.65 682.3 496.35 676.95 497.45 676.65 497.5 676.4 497.6 676.2869140625 497.6 676.15 497.6 675.555078125 497.925 674.45 498.25 672.6748046875 498.7720703125 670.95 498.9 670.8494140625 497.6603515625 670.15 496.4 670.10859375 496.1638671875 670.05 495.9 669.3 492.55 669.05 490.75 668.95 489.9 668.9 489.4 668.9 489.3 668.9 489.2
L 668.75 487.75
Q 668.45 485 668.35 483.55 668.3 483.25 668.2 483 669.85 478.85 670.6 476.95 671.1 475.05 671.55 473.55 671.55 473.45 671.6 473.4 671.9228515625 472.779296875 672.2 472.2 672.312109375 472.1333984375 672.4 472.05
L 672.4 472.05
Q 672.8505859375 471.016015625 673.45 470.5 673.6 470.068359375 673.6 469.55 673.44921875 468.1931640625 672.95 467.5 673.425390625 467.705078125 673.75 467.95 674.347265625 468.4369140625 674.55 469.15 674.5833984375 469.23125 674.6 469.3 674.6619140625 469.4859375 674.7 470 674.7240234375 470.01875 674.75 470.05 677.3 473.2 678.4 475.55 679.35 477.55 686.65 479.2 686.75 479.25 686.9 479.25 689.4 480.65 693.95 482.4 700.4 484.9 703.75 485.75 706.6 486.95 709.55 488.55 711.65 489.65 714.5 491.25 714.55 491.2 714.65 491.2 714.9 491.4 715.2 491.65 716.65 492.8 718.5 493.05 719.6 492.05 721.05 490.9 726.9 483.7 728.5 481.35 731.201953125 477.3408203125 733.05 473.8 733.25 473.226171875 733.25 472.8 733.25 472.7201171875 733.25 472.65 733.4 472.19375 733.4 471.75 733.4 470.5119140625 732.4 469.35 732.333203125 469.11328125 732.25 468.9 732.01953125 468.7658203125 731.75 468.65 731.455078125 468.3703125 731.1 468.1
M 666.4 433.2
L 666.45 433.2
Q 667.5 434.1 669.15 435.2 669.85 436.15 670.75 437.2 674.7 441.95 676.25 443.5 677.65 444.95 683.35 451.45 683.45 451.55 683.55 451.7 687.95 458.05 690.3 460.4 690.55 460.65 690.8 460.9 690.84609375 460.9384765625 690.9 460.95 691.7 461.3423828125 692.6 461.75
L 692.7 461.8
Q 692.8962890625 461.8814453125 693.05 461.95 693.164453125 462.0072265625 693.25 462.05 694.587109375 462.630078125 696.15 463.3 698.4650390625 464.3685546875 700.2 465.45 700.7220703125 465.6544921875 701.25 465.85 704.5 467.05 710.65 469 711.45 469.35 712.3 469.7 713.85 470.3 715.25 470.85 718.95 472.45 721.7 473.6 720.95 474.95 720.85 475.2
L 720.8 475.2
Q 719 477.65 717.45 479.8 716.45 481.2 715.8 482.2 706.65 477.75 705.5 477 703.3 476.25 701.35 475.55 698.65 474.3 695.8 473.1 690.8 471.05 688 470.5 686.55 468.75 684.1 466.45 681.7 463.05 679.55 460.4 675.4 455.3 672.9 453.8 672.45 453.55 672.1 453.4 671.95 453.35 671.85 453.3 671.8 453.4 671.7 453.5 671.15 453.65 670.4 454.2 668.1 455.8 667.8 457.1
L 667.75 457.05 667.6 457.85
Q 667.6552734375 457.9884765625 667.7 458.1 667.805078125 458.2125 667.9 458.3 667.9423828125 458.3396484375 667.95 458.35 668.2697265625 458.9828125 669.55 460.95 669.46328125 461 669.35 461 668.5037109375 460.708203125 667.65 460.3 666.153515625 462.4794921875 664.6 466.2 662.5 471.1 658.75 481.1
L 658.85 481.65 659.1 481.75
Q 659.1 485 660.15 493.6 660.55 496.8 660.9 499 660.8337890625 499.0271484375 660.75 499.05 661.3251953125 499.265625 661.75 499.45 661.8634765625 499.4638671875 661.95 499.45 662.75390625 499.4962890625 663.65 499.5 663.786328125 499.573046875 663.9 499.65 664.5314453125 500.1234375 665.05 500.4 665.068359375 500.4306640625 665.05 500.45 664.405078125 500.521484375 663.65 500.65 662.755859375 500.8072265625 661.95 501 661.6212890625 501 661.25 501 659.9953125 501 658.7 500.75
L 653.45 500.75
Q 652.657421875 500.896484375 651.75 501.05 650.4 501.3 649.1 501.5 648.15 501.5 647.8 501.5 647.2 501.55 640.35 502.3 630.85 503.05 627.2 503.4 627.05 503.4 626.9 503.45 625.7 502.95 624.2 502.45 622.5 501.85 621.1 501.45 620 500.95 618.6 500.45 618.048046875 500.2376953125 617.5 500.05 617.4685546875 500.045703125 617.4 500.05 616.726171875 499.555859375 615.75 499 615.3896484375 498.7947265625 615.05 498.65
L 619.55 498.65
Q 622.3 498.55 624.25 498 624.5 497.8 624.85 497.7 626.5 497.25 627.9 495.9 628.06796875 495.66484375 628.2 495.4 628.444140625 495.5 628.75 495.5 630.3 495.5 633.45 473.7 633.8123046875 470.866015625 634.1 468.4 634.3876953125 467.2869140625 634.5 466.75 635.15 463.95 635.85 459.6 636.95 452.6 637 452.25 637.05 451.8 637.15 451.4 637.175 450.873046875 637.2 450.45 636.9271484375 448.0119140625 635.15 445.6 633.5052734375 443.419921875 633.1 442.75 632.38828125 442.21015625 631.2 441.55 629.75 440.75 629 440.8 629 440.6 629 440.4 629 438.25 626.15 438.25 623.25 438.25 623.25 440.45 623.25 440.5 623.4 441.5 622.8 441.05 621.8 440.85 622.65 439.9 622.65 439.05 622.65 435.7 619.05 435.2 616.05 434.8 615.55 437.8 614.8 437.25 613.4 437.45 611.058984375 437.73671875 610.5 438.95 610.48671875 439.5662109375 610.4 440
L 610.35 440
Q 610.457421875 440.4013671875 610.75 440.95 610.4 440.65 609.75 440.6 609.75 440.35 609.7 440.2 609.775390625 440.124609375 609.85 440.05 609.7271484375 439.8748046875 609.6 439.7
L 609.5 439.75
Q 609.35 439.75 608.65 439.25 608.1 438.8 607.9 438.6
L 606.75 438.6
Q 606.2458984375 438.975390625 605.55 439.4
L 605.5 439.5 605.45 439.45
Q 605.1998046875 439.6591796875 604.9 439.85 600.3 442.75 600.25 442.75 599.95 442.7 599.85 442.6 599.75 442.55 599.75 442.15 599.75 440.8 603.25 438.4 603.3244140625 438.348828125 603.4 438.3 603.7287109375 437.6103515625 604.8 436.85 606.0158203125 435.9697265625 607.25 435.6 608.19453125 434.9 608.8 434.9 608.8390625 434.8765625 608.85 434.85 610.6 434.574609375 613.2 434.1 620.1 432.85 620.75 432.75 624.7208984375 432.3087890625 628.35 431.8 628.9455078125 431.7513671875 629.55 431.7
L 640.3 431.8 663.75 433.3
Q 664.1982421875 433.3 664.55 433.25 664.25 432.345703125 664.25 432 664.25 431.0169921875 666.4 433.2
M 698.9 502.85
L 699 503.5
Q 699 504.0236328125 696.25 509.15 694.693359375 514.31015625 692.55 520.4 691.6 523.05 690.95 525 687.85 524.3 682.3 523.8 680.1 523.6 678.1 523.5 665.9 521.1 658.25 520.3 653.7 519.9 645.75 518.7 636.75 517.35 632.75 516.75 628.4 516.15 625.45 515.95 625.35 516.05 625.3 516.1
L 625.3 516.15
Q 624.7 515.9 623.85 515.9 624.35 515.7 624.6 515.55 621.15 515.55 614.15 517.1 612.25 517.55 610.8 517.95 610.4 517.25 609.95 516.45 607.35 512.05 606.75 510.95 606.5 510.3 606.25 509.65 605.75 507.75 605.35 505.7 608 507.05 609.85 507.05 612.45 507.1 617.65 508.75 620.25 509.6 622.75 510.4 622.85 510.4 623.05 510.35 624.45 510.7 625 510.7 625.6 510.7 626 510.45
L 627 510.45
Q 627.6 510.45 628.25 510.35 629.15 510.4 630.25 510.4 640.85 510.4 661.7 507.95 670.75 506.85 677.8 505.85 678.85 505.85 680 505.85 683.8 505.85 689.95 504.55
L 696.25 504.65
Q 696.3 504.55 696.35 504.45 696.95 504.5 697.65 504.55 698.637890625 503.3025390625 698.9 502.85
M 611.25 442.25
Q 611.25 441.95 611.2 441.75 612 442.9 613.1 442.9 614.75 442.9 615.65 441.85 616 441.45 616.2 440.95 616.9 441.75 618.05 442 617.65 442.8 617.65 444.1 617.65 444.15 618.1 445.6 618.95 447 621 447 623.2 447 624 445.35 624.4 444.55 624.4 443.45 624.4 443.35 624.4 443.3 625.25 443.85 626.75 443.85 628 443.85 628.55 442.8 628.7 443.1 628.85 443.5 629.1 443.9 629.45 444.25 628.15 445.2 628.1 447.2 627.5 447.05 626.75 447 623.15 446.7 623.15 448.95
L 623.35 450.7
Q 623.65 451.75 624.2 452.25 623.6 452.4 623 452.55 622.2 452.55 621.9 452.55 621.35 452.65 620.8 452.8 621.55 452.35 622 451.5 622.5 450.6 622.5 449.55 622.5 447.7 619.15 447.5 616.65 447.4 616 449.2 615.5 449.8 615.5 450.7 615.5 450.75 615.75 451.8 616.1 452.35 616.8 452.65 617.2 452.85 617.7 453 610.65 452.95 608.8 452.15 609 451.35 609 449.75 609 448.65 607.8 447.95 606.65 447.25 605.2 447.35 603.1 447.45 602.15 448.75 601.4521484375 448.0521484375 600.8 447.45 601.07109375 446.4484375 601.75 445.25 602.8400390625 444.790625 604.35 444.15 604.35 444.25 604.35 444.35 604.35 446.35 606 446.35 609.65 446.35 610.75 444.6 611.25 443.85 611.25 442.25
M 595.25 448.5
Q 595.25 448.6443359375 594 451.3 593.995703125 452.825 593.65 454.8 593.5978515625 455.2177734375 593.5 455.8 593.6119140625 456.453125 593.75 457.25 593.88515625 457.710546875 594.05 458.1 594.40859375 463.2150390625 598.35 467.7 598.75 468.15 609 477.7 608.55 478.2 608.05 478.75 604.9 482.5 603.3 484.75 603.2 484.65 603.1 484.6 599.4 482 598.4 481.1 597.2 480.15 596.15 479.4 595.8 479 595.4 478.6 591.3216796875 474.336328125 590.25 472.5 589.9583984375 471.6638671875 589.7 470.9 589.7041015625 470.88359375 589.7 470.85 589.35 469.3 589 466.35 588.9099609375 465.4951171875 588.7 464.8 588.71953125 464.266796875 588.75 463.75
L 588.75 463.65
Q 588.9412109375 460.5017578125 589.45 458.05 589.80625 457.516015625 590.15 456.95 590.298828125 456.002734375 590.6 455.25 590.9033203125 454.5421875 591.5 453.6 592.9123046875 449.1669921875 595 448.1
L 595.15 448.05
Q 595.25 448.1 595.25 448.5
M 604.45 459.6
Q 604.8359375 459.889453125 605.3 460.25 607.9521484375 460.921484375 611.25 461.15
L 619.25 461.25
Q 621.3189453125 460.959765625 623.05 460.6 623.576171875 460.690234375 624.1 460.75 625.51484375 460.75 627.1 460.45 630.0396484375 458.503515625 631.15 458.6
L 631.25 459.05
Q 631 459.65 629.65 461.45 628.4 463.05 628.25 463.85
L 628.25 468.05
Q 627.866015625 470.9064453125 627.35 474.8 625.3 487.5 623.45 488.85 623.2224609375 489.456640625 622.2 490.2 617.5869140625 491.1 612.7 491.1 612.16484375 491.1 611.4 490.8 610.014453125 491.558984375 608.25 492.5 607.85 492.5 607.7 492.45
L 607.65 492.35
Q 607.5 492.55 607.5 491.95 607.5 491.4771484375 610.45 489.85
L 610.45 489.7
Q 611.55 488.4 612.85 486.85 615.45 483.7 618.4 480.55 618.45 480.35 618.5 480.2 618.963671875 479.9294921875 619.35 479.2 619.5 478.6541015625 619.5 478.15 619.5 477.24609375 618.9 475.4 617.89765625 474.29765625 616.8 473.2 613.3 469.65 611.25 468.8 609.2 466.85 606.6 464.6 605 463.25 603.65 462.15 603.46015625 461.840234375 603.25 461.45 601.57578125 461.2947265625 600.7 460.2 600 459.3 600 458.4
L 600 457.6
Q 601.7 457.55 604.45 459.6
M 631.6 449.75
Q 631.4 449.8 631.25 449.9 630.8 450.1 629.95 450.45 630.2 450.05 630.3 449.65 630.9 449.7 631.6 449.75
M 595.25 503.25
Q 595.624609375 505.3037109375 595.9 506.9 597.2826171875 511.1603515625 598.55 513.5 599.55 516.5 600.5 518.45 600.35 518.55 600.2 518.6 600.45 518.75 600.75 518.9 601.35 520 601.95 520.75 601.85 520.75 601.7 520.8 601.9 521 602 521.25 601.9197265625 521.27421875 601.85 521.3 602.5259765625 522.096484375 603.25 523 602.95 523.5 602.35 523.5 601.715234375 523.5 600.05 521.8 592.1376953125 524.2208984375 591.6 524.4 589.5 525.15 587.2 526.2 586.3 524.85 584.9 522.85 584.3 522 583.8 521.2 581.6369140625 517.4986328125 580.5 515.3 579.4541015625 514.028515625 578.65 512.65 577.8205078125 511.228125 577.1 509.5 576.5068359375 508.703515625 575.6 507.5 572.75 503.65 572.75 502.8
L 572.75 502.1
Q 573.4154296875 502.726171875 574.15 503.55
L 576.05 503.55
Q 579.25 504.1 584.1 504.55 590.0375 505.1302734375 594.5 505.4 594.5 504.9685546875 594.5 504.9 594.65 503.75 595.25 503.25
M 628.25 461.45
L 628.25 461.65
Q 628.3255859375 461.50625 628.4 461.35 628.3302734375 461.38984375 628.25 461.45
M 612 467.35
Q 612 467.25 612 467.15 611.85 467.1 611.75 467.1 611.85 467.2 612 467.35
M 614.65 443.95
Q 614.35 443.9 614 443.95 613.8 443.95 613.55 443.95 612.55 444.05 611.9 444.45 610.1 445.3 610.1 447.2 610.1 447.25 610.4 448.3 610.6 448.65 611 448.85 611.55 450.1 612.85 450.1 615.35 450.1 616.15 448.45 616.5 447.7 616.5 446.3 616.5 444.2 614.65 443.95
M 662.95 389.7
Q 662 380.15 655.15 374.55 648 368.75 637.6 369.15 627.3 369.6 620.05 375.9 612.1 382.85 612.1 394 612.1 394.25 612.15 398.35 612.55 403.05 614.55 406.9 620.75 419.1 640.05 419.1 653.6 419.1 659.55 407.4 662.35 401.9 662.95 395.9 663.1 394.35 663.1 392.8 663.1 391.2 662.95 389.7
M 649.7 384.95
Q 653.5 390.45 653.5 393.3 653.5 398.6 651.85 402.2 648.2 409.95 637.9 409.95 626.85 409.95 622.95 402.75 621.1 399.35 621.1 394.3 621.1 391.45 624.1 387.05 627.05 382.8 630.25 380.8
L 632.2 380.55
Q 634.35 380.35 635.2 380.35 637.25 380.35 639.65 381.8 642.05 383.3 642.1 383.3 642.95 383.3 643.3 383.05 643.4 382.85 643.35 382.75 643.35 382.55 642.5 381.25 641.6 379.9 641.55 379.8
L 641.65 378.95
Q 645.45 378.75 649.7 384.95
M 560.05 490.45
Q 560.15 490.45 560.3 490.45 560.55 490.35 560.8 490.25 560.45 490.3 560.1 490.35 560.05 490.4 560.05 490.45 Z"/>
</g>

<g id="Layer0_0_FILL">
<path fill="#000000" stroke="none" d="
M 819.65 418.75
Q 817.35 418.8 815.7 419.85 813.95 421.1 813.95 423 813.95 423.1 814.4 426.5 815.55 429.35 819 429.8 819.15 429.75 819.35 429.7 819.6 429.85 820.05 429.85 820.75 429.85 821.3 429.6 822.55 429.5 823.3 428.75 823.4 428.75 823.55 428.75 824.3 428.05 824.75 426.95 825.3 425.5 825.3 423.55 825.3 421.15 823.55 419.85 821.95 418.7 819.65 418.75
M 798.7 514.95
Q 798.7 515 798.7 515.05
L 798.7 515.1
Q 798.95 515 799.2 514.95 798.9 514.95 798.7 514.95
M 777.45 486.75
Q 776.25 487.75 775.4 488.8 774 490.95 773.05 493.2 772.95 493.6 772.95 494.05 772.95 494.1 772.95 494.2 772.9 494.3 772.85 494.5 772.4 495.35 772.05 496 771.85 497.1 771.65 498.05 771.6 498.5 771.65 499.1 771.65 499.25 771.65 499.5 771.65 499.55 771.65 499.65 771.65 499.7 771.65 499.75 771.4 501.4 771.4 503.2 771.15 505.15 771.15 506 771.15 507.1 771.2 507.4 771.2 508.3 771.2 509.6 771.25 511.45 771.55 512.55 771.5 512.7 771.5 512.85 771.5 520.15 774.5 524.85 775.85 527.05 777.9 528.5 778.2 528.9 778.65 529.3 781.2 531.6 786.55 531.6 787.4 531.95 788 532.05
L 791.45 532.1
Q 792.2 532.2 793.25 532.2 800.55 532.2 804.35 529.5 805.9 528.4 806.5 527.4 806.6 527.35 806.7 527.3 806.7 527.2 806.75 527.1 807.45 524.7 807.9 522.9 807.9 521 807.9 520.95 807.75 517.15 807.95 515.05 807.9 515 807.9 514.95
L 807.9 514.9
Q 807.85 513.75 807.7 512.4 807.85 511.95 808 511.45 807.85 510.2 807.8 509.25 807.85 508.8 807.9 508.4 807.8 508.45 807.75 508.5 807.7 507.55 807.7 506.8 807.7 506.7 807.7 506.6 807.4 506.4 807.05 506.3 800.3 506.3 796.85 506.1 796.5 506.25 796.2 506.5 795.95 506.7 795.75 506.9
L 795.6 510.25
Q 795.6 510.35 795.6 510.4
L 795.6 512.55
Q 795.6 512.6 795.65 512.7 795.6 513.3 795.6 513.95 795.6 514.1 795.8 514.25 798 514.25 800.2 514.4 800.45 514.45 800.45 514.7 800.45 515.1 799 515.5 798.8 515.55 798.65 515.6 798.45 517.05 798.3 518.95
L 798.3 521.45
Q 796.8 523.5 794.2 523.5 789.95 523.5 788 523.05 786.3 522.6 785.2 521.7 783.95 521.5 783.1 519.25 782.95 518.65 782.85 518.2 782.05 516.85 781.75 514.2 781.75 508.7 781.75 508.65
L 781.75 503.6
Q 781.75 503.45 781.75 503.35 781.75 503.25 781.75 503.2 781.75 503.1 781.8 503.05
L 781.8 503
Q 781.8 502.9 781.8 502.85 781.8 502.75 781.85 502.7 781.8 501.75 781.75 500.9 782 500.05 782.35 499.25 782.6 497.65 783.6 496.25 784.4 494.6 785.8 493.5 786.35 493.05 786.9 492.9 787.1 492.75 787.25 492.6 791.7 491.75 798.3 491.75 799.2 491.75 801.25 492.15 803.25 492.55 805 492.55 805.5 492.55 805.75 492.3 805.95 491.55 806.1 490.9 806.1 490.75 806.1 490.55 806.1 489.65 806.4 488.2 806.75 487.6 807 486.15 807 485.85 806.85 485.65
L 806.85 485.45
Q 806.85 484.6 806.25 484.35 805.35 483.95 801.4 483.35
L 794.5 483.35 794.5 483.5
Q 787.9 482.45 783.1 484.1 781.05 483.7 777.45 486.75
M 806.2 508.05
Q 806.2 508.1 806.15 508.2 806.1 508.1 806.05 508.05 806.15 508.05 806.2 508.05
M 781.05 506.05
Q 781.05 506 781.1 506
L 781.05 506.6
Q 781.05 506.3 781.05 506.05
M 783.15 421.7
Q 782.6 421.9 782.1 422.05 777.05 425.05 776.4 425.45 776.1 425.65 774.75 426.75 772.9 430.35 771.95 434.6 771.7 435.7 771.35 440 771.35 440.2 771.35 440.4 771.4 440.9 771.5 442 771.4 442.35 771.4 442.65 771.25 444.4 771.25 449.6
L 771.6 454.25
Q 771.85 456 772.4 457.1 772.45 457.75 772.45 458.5 772.75 459.45 773.15 460.5 774.75 464.8 777.05 465.8 778.65 467.45 780.8 468.75 782.2 468.95 785.6 469.4 790.75 470.05 793 470.25
L 793.3 470.25
Q 797.6 469.75 799.95 469.4 801.6 469.45 802.85 469.05 803.1 469.1 803.5 469.1 805.65 469.1 806.65 468.55 807.3 468.2 807.3 467.65 807.3 467.2 807.25 466.65 807.45 466.15 807.45 465.9 807.15 464.35 806.6 462.8 805.6 460 804.7 459.85
L 804.65 459.85
Q 803 460.4 800.95 460.65 800.8 460.7 800.65 460.7 799.9 461.05 799.3 461.25
L 789.25 461.15
Q 786.5 460.25 784.6 459.6 784.2 459.2 783.8 458.85 783.25 458.1 782.8 457.15 782.1 455.85 781.7 454.45 781.7 451.7 781.5 447.1 781.35 444.15 781.3 442.15 781.7 438.45 782.45 436.4 782.55 436.05 782.7 435.8
L 782.65 435.65
Q 782.65 434.6 783.9 432.9 784.4 432.2 784.95 431.75 785.8 430.95 787.35 430.45 788.45 429.65 789.35 429.6 789.75 429.55 790.1 429.65 791.85 429.25 794.05 429.25 794.6 429.25 795.05 429.25 796.95 430.1 797.2 430.2 797.65 430.5 798.4 432.25 798.5 432.6 798.7 432.95 798.65 433 798.6 433.05 798.85 433.8 799.1 434.6 799.4 435.6 799.4 436.7 799.4 436.8 799.05 438.8 799.3 439.3 800.1 439.5 801.8 439.95 807.25 439.95 808.45 439.95 808.55 433.8 808.55 432.75 808.1 431.8 807.95 429.45 806.6 426.9 804.7 423.25 801.2 421.95 796.3 420.35 789.9 420.95 788 420.8 786.25 421.1 785.25 421.3 784.6 421.55 784.2 421.5 783.8 421.5 783.5 421.65 783.15 421.7
M 783.9 428.1
Q 783.65 428.3 783.4 428.5
L 783.35 428.4
Q 783.65 428.2 783.9 428.1
M 779.6 430.55
Q 779.6 430.5 779.6 430.45 779.6 430.4 779.7 430.4 779.65 430.5 779.6 430.55
M 856.65 494.65
Q 856.25 494.5 855.9 494.65 855.45 494.9 855.3 495.85 855.25 495.85 855.25 495.9
L 855.25 498.55
Q 855.3 498.85 855.35 499.25 855.35 500 855.35 500.95 855.3 501.6 855.3 502.5 855.3 502.825 855.3 503.15 855.2515625 503.3439453125 855.3 503.45 855.253125 503.3533203125 855.25 503.25
L 855.25 519.7
Q 855.2 520.2 855.15 520.95 855.15 521.45 855.2 521.9
L 855.05 529.1
Q 855.05 529.2 855.05 530.35 855.3 531.45 856.35 531.45 857.25 531.45 858.1 531.45 858 531.55 857.95 531.6
L 858 531.6
Q 858.05 531.6 858.15 531.6
L 858.15 531.55 864.3 531.55
Q 864.4 531.4 864.4 531.05 864.4 530.5 864.3 530.2
L 864.3 530.15
Q 864.7 529.7 864.55 528.95 864.3 528.05 864.3 527.65 864.3 524.85 864 518.8 864.3 515 864.3 514.35 864.45 510.05 864.55 507.6 864.4 507.1 864.4 507.05 864.4 506.7 864.6 506.4 864.8 506 865.4 505.8 865.4 505.75 865.45 505.7 866.4 504.6 869.35 504.15 873.7 503.45 875.95 504.45 876.35 504.4 876.65 504.45 876.7 504.3 876.8 504.15 877 504.35 877.35 504.35 878.1 504.35 879.95 496.5 879.95 493.6 878.25 493.6 877.85 493.6 877.55 493.8 876.9 493.65 875.95 493.7 874.85 493.75 874.2 494 873.9 493.85 873.55 493.75 872.7 493.9 871.5 494.55 870.05 494.9 868.2 496.25 866.55 497.45 865.55 498.35 865.15 498.6 864.8 498.85 864.25 499.35 863.65 499.95 863.3 500.3 863.05 500.6 863 500.7 863 500.8
L 862.8 500.85
Q 862.15 501.45 861.8 501.85 861.8 501.75 861.85 501.7 862.8 499.65 862.85 498.5 863.05 498.3 863.25 498.05
L 863.15 497.35
Q 863.15 496.25 862.95 495.65 863.15 495.45 863.15 495.1 863.15 494.4 859.2 494.45 857.8 494.5 856.85 494.7 856.75 494.65 856.65 494.65
M 860.65 496.45
Q 860.75 496.4 860.85 496.4 860.85 496.45 860.85 496.5 860.85 496.55 860.85 496.6 860.75 496.5 860.65 496.45
M 816.9 494.25
Q 816.5 494.3 816.3 494.55 816.25 494.75 816.25 495.1 816.25 495.15 816.35 495.3 816.25 495.45 816.25 495.6
L 816.2 495.65
Q 816.1 497.25 815.9 499.85 815.85 500.6 815.8 501.35 815.9 502.9 816.1 505.1
L 816.1 506.75
Q 815.65 510.5 815.65 512.25 815.65 513.2 815.8 514.6
L 815.8 514.65
Q 815.8 514.9 815.9 519.7 815.95 520.3 816.05 520.85 815.7 521.45 815.7 524.15
L 816.5 527.65
Q 816.9 528.65 817.45 529.4 818.65 531.05 820.55 531.1 821.55 531.75 822.65 531.75 823.2 531.75 823.65 531.65 824.3 531.9 824.95 531.9 826.55 531.9 831.8 530.85 836.8 529.85 837.45 529.5 837.9 529.35 839.15 528.3 839.25 528.4 839.4 528.4 839.5 528.4 839.55 528.4 839.55 529.5 839.95 529.95 840.05 530.1 840.2 530.25 840.05 530.6 839.95 530.75
L 840.05 531.45 840.6 531.55
Q 841.05 531.55 843.35 531.25 844.05 531.3 844.85 531.3 845.45 531.3 845.9 531.15 846.4 531.2 846.65 531.4 846.7 531.5 846.85 531.55 847.2 531.4 847.75 531.45
L 847.8 530.25
Q 847.8 529.05 847.3 524.75 847.3 522.75 847.25 520.8 847.75 512.1 847.75 509.9 847.75 508.45 847.55 506 847.8 499.7 847.8 496.5 847.8 496.1 847.55 495.8 847.55 495.15 847.35 495.05 847.1 494.85 845.3 494.65
L 845.3 494.7
Q 844.5 494.55 843.45 494.5 840.7 494.3 839.65 494.5 839.45 494.5 839.3 494.55 839.1 494.6 839.1 494.7 839.1 494.75 839.1 494.8 838.95 494.7 838.8 494.65
L 838.8 495.75
Q 838.5 496.7 838.5 497.4 838.5 498.3 838.65 500.05 838.55 500.55 838.5 501.3 838.5 501.65 838.55 501.95 838.5 502 838.5 502.05 838.5 503.8 838.5 506.15 838.5 506.4 838.5 511.65 838.45 512.65 838.35 513.5 838.4 515.1 838.5 516.95 838.5 517.15 838.55 517.3 838.5 517.3 838.5 517.35 838.4 517.65 838.4 519.05 838.4 519.1 838.5 519.9 838.85 519.85 839.15 519.85 839.6 520 840.5 520.05
L 840.5 520.1
Q 840.75 520.05 841.05 520.05
L 841.1 520.1 841 520.1
Q 841.0544921875 520.1015625 841.2 520.15 841.2 520.2 841.25 520.3 841.05 520.4 840.9 520.55 840.15 521.1 839.55 521.6 839.45 521.65 839.35 521.65 839 521.85 838.55 522.1 838 522.4 837.6 522.65 837.45 522.7 837.25 522.75 835.7 523.5 835.1 523.5 835.05 523.5 835 523.5 832.55 524.15 830.9 524.15 830.5 524.1 830.15 524.1 829.8 524.15 829.45 524.15 827.9 524.15 826.9 523.65 826.9 523.7 826.85 523.7 826.45 523.5 826.05 523.25 825.85 523.05 825.7 522.85 825.7 522.75 825.7 522.65 825.6 522.55 825.55 522.45
L 825.4 522
Q 825.2 521.75 825.1 521.35 825.1 521.1 825.1 520.85 825.1 520.7 825.1 520.65 824.85 519.8 824.65 518.55
L 824.45 514.8
Q 824.45 514.3 824.5 513.8 824.45 513.25 824.45 512.8 824.7 510.2 824.8 508.8 824.9 507.3 824.9 502.3
L 824.9 496.9
Q 825 496.2 824.9 495.75 824.85 495.1 824.1 494.65 819.85 494.65 817.45 494.3 817.15 494.25 816.9 494.25
M 845.75 500.65
Q 845.7 500.55 845.65 500.5 845.65 500.45 845.65 500.4 845.75 500.4 845.8 500.45
L 845.8 500.5
Q 845.75 500.55 845.75 500.65
M 820.45 495.45
L 820.25 495.6
Q 820.15 495.5 820.1 495.5 820.25 495.45 820.45 495.45
M 823.9 432.8
Q 823.2 432.2 821.65 432.35 821.5 432.2 821.3 432.15
L 819.85 432.15
Q 816.75 432.7 814.8 432.8
L 814.8 435.5
Q 814.8 437.8 815.05 442.8 815.05 443 814.9 446.85 815 447.7 815.05 448.45 815.05 449.35 815.05 450.75 814.95 451.85 814.8 452.55 814.75 454.1 814.75 455.85
L 814.7 466.55
Q 814.7 468.05 815.05 468.4 816.35 469.8 821.6 469.8 822.9 469.8 823.75 468.35 823.75 467.85 823.8 467.5 824.1 467.15 824.1 466.7 824.1 466.15 823.9 465.8 823.9 465.25 824 464.85
L 824 449.75 823.95 449.75 824.2 440
Q 824.2 437.75 824.25 436.2 824.15 435.75 824.05 435.35 824.15 435.25 824.25 435.2 824.3 434.3 824.35 433.7 824.35 433.6 824.4 433.5 824.3 433.45 824.25 433.4 824.1 433 823.9 432.8
M 857.95 431.45
Q 852.9 431.1 850.85 431.95 850.5 432.1 850.3 432.2 848.05 432.4 846.6 433 842.35 434.7 841.2 435.05
L 840.95 435.05
Q 841.45 433.65 840.9 433.05 840 432.15 834.55 432.15 833.6 432.15 833.25 432.35 832.9 432.6 832.9 433.05 832.9 433.25 833.25 433.5 833.15 433.75 833.1 434 833 434.5 833 436.35
L 833.25 440.3
Q 832.85 443.1 832.85 448.55 832.85 448.6 832.85 449.7 832.7 451.15 832.7 452.95 832.7 453 832.75 461.15 832.85 463.8 833.05 465.65 833.05 465.7 833 465.75 832.85 466.25 832.7 466.65 832.7 467.3 832.7 468.6 832.95 469 833.35 469 833.7 469 833.85 468.9 834.1 469.35 834.5 469.35 835.15 469.35 835.5 469.1 835.55 469.1 835.6 469.1 837.55 469.1 838.95 469.05 839.1 469.1 839.2 469.15 840.2 469.1 841.2 469 841.6 469 841.95 469.1 842 468.9 842 468.65
L 841.95 468.5
Q 842.4 468.25 842.4 467.35 842.25 466.7 842.1 466.3 842.15 465.8 842.2 465.2 842.2 464.95 842.2 462.35 842.1 459.65 841.75 458.1 841.85 456.25 841.85 453.35 841.95 450.8 841.95 448.75 841.85 448.15 841.8 447.45 841.75 447.05 841.75 445 841.75 444.65 841.75 444.3 841.75 444.05 841.7 443.8 841.75 443.2 841.8 442.7 841.9 440.8 842.25 440.3 842.65 440.9 843.05 441.75 844 441.1 846.45 440.35 847.7 439.95 848.6 439.9 848.95 439.75 849.3 439.7 851.05 439.65 852.05 439.6 852.35 439.5 852.65 439.5 853.9 439.5 854.6 441 854.7 441.25 854.85 441.55 854.95 441.6 855.05 441.65 855.1 442.45 855.25 443.25 855.6 445.2 855.6 446.05 855.6 446.4 855.5 450.4 855.45 454.8 855.5 457.05 855.5 458.95 855.25 462.8 855.05 466.6 855.05 468.25 855.05 468.65 855.2 468.95 855.6 469.55 856.45 469.55 863.45 469.55 864.15 468.95 864.75 468.45 865.1 466.4 865.1 461.25 865.1 461.2 865.1 460.6 865.15 459.45 865.05 459.35 864.95 459.25 865 457.85 865 457.8
L 865 449.4
Q 865.05 449.35 865.1 449.3 865.1 447 865.15 445.1
L 865 440.15
Q 864.85 439.6 864.75 439 864.5 437.7 864.3 436.75 863.95 436.5 863.5 436.4 863.4 435.6 863.2 434.8 862.65 433.8 860.4 432.35 858.9 431.4 858.35 431.7 858.1 431.55 857.95 431.45
M 842.35 439.8
Q 842.15 439.85 842.05 439.9
L 842.05 439.85
Q 842.15 439.8 842.35 439.8
M 839.85 465.25
Q 839.8 465.05 839.75 464.75
L 839.85 464.8
Q 839.85 465 839.85 465.25
M 839.8 466.4
Q 839.84765625 466.209375 839.85 466.1 839.85 466.2576171875 839.85 466.5
L 839.8 466.4
M 857.55 446.85
Q 857.5 446.5 857.45 446.25
L 857.55 446.3 857.55 446.85
M 907.5 494.9
L 907.4 494.9 907.75 506.8 907.4 520.45
Q 908.2 520.55 909.4 520.8 909.6 520.9 909.8 520.9 909.85 520.9 909.85 521 909.3 521.3 908.6 521.7 908.4 521.8 908.2 521.95
L 908.25 522.05
Q 907.55 522.7 904.9 523.55 901.55 524.6 898.5 524.6
L 897.75 524.55
Q 897.75 524.45 897.8 524.35 897 524.1 896.25 523.7 894.65 523.55 894.1 521.55
L 893.9 519.5
Q 893.9 519.15 894.05 518.85 893.95 518.5 893.9 518.1 893.65 513.1 893.65 513.05 893.65 510.5 893.85 509.05 893.8 507.35 893.8 504.65 893.75 502.2 893.65 500.25 894.1 495.75 894.1 495.7 894.1 495.1 893.25 494.95 892.35 494.75 889.2 494.65
L 886.05 494.65
Q 885.6 494.25 885.2 495.05 884.95 495.25 884.95 495.4 884.95 495.5 885 495.55 884.85 496 884.65 496.7
L 884.6 503.05
Q 884.6 506.55 884.65 507.65 884.75 509.65 885.1 511.2 884.75 514.25 884.75 518.9
L 884.75 521.7
Q 884.85 523.6 885.3 524.2 885.45 526.1 886.1 527.55 888.05 532 894.65 532 897.5 532 900.65 531.2 901.65 530.95 902.7 530.6 903.3 530.4 903.9 530.2 905.3 529.7 906.25 529.3 907.9 529.05 908.65 529.05 908.7 529.45 908.7 530.3 908.85 531.05 909.75 531.55
L 913.55 531.55
Q 914.7 531.2 915.75 530.95 915.9 531.2 916 531.55 916.3 531.15 916.5 530.75 916.5 530.25 916.5 529.95 916.5 529.65 916.55 529.1 916.55 529 916.55 528.85 916.5 528.9 916.45 528.9 916.5 528.6 916.55 528.2 916.45 526.2 916.45 526.15 916.45 519.9 916.7 516.7
L 916.7 507.5
Q 916.45 501.85 916.45 497.35
L 916.45 494.4
Q 913.9 494.65 913.55 494.65 911 494.65 909.25 494.4 908.6 494.9 907.5 494.9
M 889.9 496.25
Q 889.85 496.2 889.85 496.15 889.9 496.15 890 496.15 889.9 496.2 889.9 496.25
M 887.2 496
L 887.35 496 887.35 496.05
Q 887.30234375 496.00234375 887.2 496
M 892.25 496.35
Q 892.3 496.35 892.35 496.35
L 892.35 496.65
Q 892.3 496.5 892.25 496.35
M 904.15 526.85
Q 904.1 526.95 903.95 527.1 903.85 527 903.8 526.95 903.95 526.9 904.15 526.85
M 893.05 432.45
Q 892.9 432.4 892.8 432.35 889 431.35 884.45 432.1 881.55 432.6 879.3 433.65 877.45 434.15 876.3 434.95 874.8 436 874.55 437.45 872.55 440.1 872.35 443.75 871.55 444.8 871.55 449.8 871.55 449.85 871.55 453.5 871.7 455.25 872.1 456.15 872 456.2 871.95 456.3 871.85 456.45 871.85 456.8 871.85 457.65 872.85 459.85 873.25 461.85 874.25 463.75 877.45 470.1 885.25 470.1 886.75 470.1 889.9 469.65 890.75 469.75 891.9 469.75 896.8 469.75 899.65 468.9 902.05 468.25 902.05 467.4 902.05 467.1 901.85 466.9 902.05 466.15 901.95 464.75 901.95 463.7 901.6 462.95 901.6 462.75 901.6 462.55 901.65 461.6 901.1 461.3 901.05 461.35 901 461.35 900.35 461 898.95 461.5 898.75 461.55 898.65 461.6 897.75 461.6 896.25 461.95 895.4 462.1 894.8 462.35
L 894.75 462.3
Q 893.5 462.35 893.25 462.35 884.3 462.35 881.85 458.6 881.55 458.15 881.4 457.65 881.2 457.4 881.05 457 880.8 456.3 880.8 455.3 880.8 454.55 881.05 454.25 881.0984375 454.25 881.1 454.3 881.1 454.2484375 881.1 454.2 882.35 454.45 884.6 454.45 887.7 454.45 890.3 454.35 891.25 454.6 892.55 454.6 896.25 454.6 898.5 453.5 899.55 452.95 899.95 452.45 900.7 452.1 901.2 451.75 903.5 450.2 903.5 446 903.5 445.65 903.5 445.4 903.55 445.2 903.6 444.95 903.6 443.65 903.6 443.5 903.6 442 903.3 441.1 902.9 439.75 902.4 438.25 902.05 437.25 900.25 435.85 899.75 435.25 899.15 434.8 896.6 432.65 893.05 432.45
M 893.7 439.85
Q 895.45 441.05 895.45 443.85 895.45 445.95 894.2 446.6 891.6 448.05 882.3 448.45 882 450.1 881.55 450.75 881.2 450.2 881.2 448.15 881.2 446.9 881.3 446.55 881.35 446.4 881.4 446.25 881.45 444.95 881.5 444.2 881.65 441.85 884.05 440.15 890.9 437.95 893.7 439.85
M 970.6 433
L 969.6 433 969.6 433.35
Q 969.15 432.9 969.1 433.85 968.6 433.85 968.6 435.15
L 969.15 437.85
Q 969.5 439.15 969.75 439.8 969.7 439.9 969.7 439.95 969.75 440.35 970.35 440.6 970.7 440.5 971.2 440.4 973.1 440 976.25 440.25 977.5 440.1 979.45 440.1 983.75 440.1 985.5 440.5 986.5 440.7 987.25 441.05 987.6 441.5 988 442 988.05 442.05 988.05 442.1 988.05 442.3 988.05 442.6 988.25 442.8 988.4 443 988.45 443.25 988.5 443.5 988.75 444 988.75 444.6
L 988.75 445
Q 988.8 445.05 988.85 445.15 988.95 445.35 989.1 445.6 988.85 446.5 988.85 447.55
L 988.85 447.6
Q 988.75 447.6 988.65 447.6
L 988.25 447.35 988.25 447.3
Q 987.75 447.2 987.1 447.05 985.55 446.7 984.35 446.5 979.55 446.35 975.6 447.75 974.75 447.85 973.9 448.15 972.4 448.7 971.65 449.35 971.45 449.45 971.2 449.6 968.35 451.1 968 452.5 966.8 453.85 966.8 454.95 966.8 455.4 966.85 455.8 966.5 456.75 966.5 458.45 966.5 459.3 966.6 460 966.6 460.3 966.6 460.55 966.6 462.05 966.95 463.2 967.3 464.5 968 465.1 968.25 465.45 968.5 465.75 969.35 467.2 970.75 467.85 971.3 468.25 972 468.6 973.05 469.5 974.2 469.7 975.55 470.7 977.7 470.9 978.2 471 978.8 471
L 978.85 471
Q 979.05 471 979.2 471 981.3 471 983.6 469.9 985.25 469.4 987.55 468.45 988.6 468 989.45 467.65 990.3 467.4 990.4 467.35
L 990.85 467.4
Q 990.85 467.95 990.5 468.8 990.6 469.1 991.45 469.25 992.7 469.05 994.75 469.3
L 994.8 469.3
Q 995.55 469.15 996.35 469.1 997.45 468.95 998.4 468.9 998.3 468.7 998.2 468.55 998.35 468.35 998.45 468.2 998.45 466.5 998.45 465.55 998 460.3 998 459.7 998.3 454.1 998.3 451.45 998.3 451.05 998.3 450.6 998.55 447.55 998.45 442.75 998.45 442.45 997.85 441.2 997.75 440.3 997.1 438.8 996.65 437.75 996.3 437.2 996.05 436.75 995.75 436.45 995.55 436.15 995.4 435.9 993.45 432.85 988.15 432.15 987.35 432.15 986.75 432.2 982.85 431.4 978.25 431.65 972.6 431.9 970.6 433
M 994.55 467.5
Q 994.45 467.5 994.35 467.55 994.45 467.45 994.5 467.4 994.5 467.45 994.55 467.5
M 985.55 453
L 986.05 453
Q 986.45 453.1 988.75 453.7 988.85 453.75 989.05 453.8 988.95 455.6 988.95 458.45 988.95 460 989.15 461.05 988.55 461.2 987.95 461.45 983.3 463.05 980.4 463.05 977.4 463.05 976.05 461.1 975.9 460.95 975.85 460.75 975.5 459.75 975.4 458.8 975.55 457.3 975.85 455.8 975.85 455.7 975.9 455.65 976 455.45 976.15 455.25 977.4 454.85 979.45 454 979.8 453.85 980.9 453.7 980.9 453.65 980.95 453.65 981.85 453.4 982.75 453.4 983.4 453.25 984.25 453.15 984.95 453.1 985.55 453
M 990.45 460.6
L 990.4 460.6
Q 990.4 460.5 990.45 460.45 990.45 460.5 990.45 460.6
M 938.55 435.25
Q 938.15 434.7 937.45 434.25 936.85 433.85 936.25 433.5 935.5 432.45 932.85 432.15 931.95 432.05 931.3 432 925 431.1 918.45 434.45 918.3 433.8 918.05 433.25 917.65 432.25 916.75 432.25 913.25 432.25 911.7 432.65 911.45 432.5 911.2 432.4 910 431.95 910 433.3 910 434.4 910.35 439.65 910 441.75 910 445.4 910.1 448.75 910.45 452.6
L 910.45 465.05 910.05 466.5
Q 910.25 467.85 910.2 469.4
L 910.2 469.45
Q 911.9 469.1 915.7 469.6 916.3 469.7 916.9 469.8 917.4 469.55 917.55 469.55 918.85 469.55 919.15 469.2 919.25 469.05 919.25 467.9 919.25 467.55 919.25 467.25 919.3 466.75 919.4 466.15 919.35 465.65 919.35 465.1
L 919.35 447.75 919.4 447.75
Q 919.4 447.25 919.45 446.85
L 919.45 445.2
Q 919.3 444.3 919.2 443.35 918.9 441.65 918.9 440.3 918.9 439.9 919.05 439.75 919.1 439.7 919.4 439.6 919.85 440.1 920.15 440.85 922.2 440.1 923.6 440.1 928.2 440.1 929.3 440.75 929.7 441 930.1 441.5 930.1 441.9 930.1 442.45 930.1 444.35 930.5 453.7 930.65 458.2 930.8 460.85 930.45 465.9 930.45 468.05 930.45 468.1 930.2 468.4 930.1 468.75 930.45 469.05 930.95 469.45 932.25 469.7 933.6 469.6 935.45 469.65 937.2 469.7 938.5 469.9 940.2 469.55 940.2 468.35 940.2 467.9 939.8 465.2 939.8 464.95 939.8 464.8
L 939.6 457.05
Q 939.7 455.25 939.7 454.45
L 939.5 448.3
Q 939.65 445.55 939.6 443.75 939.6 443.35 939.6 442.95 939.6 442.5 939.65 442.15 940 441.85 940.5 441.4
L 941.45 440.5
Q 941.9 440.3 942.45 440.15 943.15 439.9 943.95 439.75 944.95 439.65 946.6 439.6 947.25 439.55 947.8 439.45 949.65 439.65 950.55 440.75 950.6 441 950.75 441.85 950.7 442.25 950.7 442.85 950.7 445 951.15 452.45 951.2 452.95 951.2 453.4 951.1 454.15 951.1 455.15 951.05 457.1 951.3 459.35
L 951.3 464.45
Q 951.35 464.65 951.4 464.85 951.1 466.2 950.7 468.65 950.7 468.7 950.7 468.8 951.1 468.75 951.65 469.1 952.4 469.1 953.3 469.1 953.8 469.1 954.25 469.15 954.5 469.1 954.65 469.1 956.1 469.1 957.5 469.15 957.5 469.25 957.6 469.35 958 469.35 958.35 469.4 958.7 469.45 959.05 469.5 959.15 469.4 959.2 469.3 959.35 469.3 959.45 469.3 960.6 469.25 960.6 468 960.55 467.7 960.45 467.45
L 960.45 467.4
Q 960.45 465.65 960.45 465.4 960.45 464.5 960.45 463.95 960.6 463.2 960.7 462.8
L 960.7 452.6
Q 960.45 447.15 960.45 447.1 960.4 445.95 960.45 444.85 960.15 441.1 960.05 438.65 959.6 437.4 958.8 435.4 957.8 434.45 956.45 433.1 955.75 432.45 955.2 431.9 954.8 431.7 954.4 431.45 954.25 431.35 954.1 431.35 951.25 430.9 946.7 432 942.95 432.95 939.85 434.5 939.1 434.9 938.55 435.25
M 916.75 453.55
L 916.85 453.55
Q 916.75 454 916.7 454.4 916.7 454 916.75 453.55
M 932.35 467.85
Q 932.4 467.85 932.5 467.95
L 932.3 467.95 932.35 467.85 Z"/>
</g>
</defs>

<g transform="matrix( 1, 0, 0, 1, 0,0) ">
<use xlink:href="#Layer3_0_FILL"/>
</g>

<g transform="matrix( 1, 0, 0, 1, 0,0) ">
<use xlink:href="#Layer2_0_FILL"/>
</g>

<g transform="matrix( 1, 0, 0, 1, 0,0) ">
<use xlink:href="#Layer1_0_FILL"/>
</g>

<g transform="matrix( 1, 0, 0, 1, 0,0) ">
<use xlink:href="#Layer0_0_FILL"/>
</g>
</svg>
