<?xml version="1.0" encoding="utf-8"?>
<!-- Generator: Adobe Illustrator 17.1.0, SVG Export Plug-In . SVG Version: 6.00 Build 0)  -->
<!DOCTYPE svg PUBLIC "-//W3C//DTD SVG 1.1//EN" "http://www.w3.org/Graphics/SVG/1.1/DTD/svg11.dtd">
<svg version="1.1" id="Слой_1" xmlns="http://www.w3.org/2000/svg" xmlns:xlink="http://www.w3.org/1999/xlink" x="0px" y="0px"
	 viewBox="0 0 1200 800" enable-background="new 0 0 1200 800" xml:space="preserve">
<g transform="matrix( 1, 0, 0, 1, 0,0) ">
	<g>
		<g id="Layer4_0_FILL">
			<path fill="#FFF655" d="M665.9,430.9c-1.8-1-4.1-1.1-7-0.1c-0.9-0.1-1.8-0.1-2.6,0c-0.3-0.1-0.6-0.1-0.8-0.2h-36.1
				c-1.9-0.3-3.9-0.1-6.1,0.6c-1.1-0.2-2.1,0.2-2.9,1.3c-3.9,1.9-8,5.2-12.6,10c-3.2,3.3-5.8,6.8-8,10.3c-2.1,3.4-3.2,5.8-3.2,7.3
				c0,4,0,6.4,0.2,7.4c0.2,2.5,0.9,4.7,1.9,6.6c2.4,4.4,8.2,9.5,17.5,15.1c-0.1,0.5-0.1,1-0.1,1.5l0.7,1.9c0.8,1.3,2.3,2,4.3,2
				c0.4,0,0.8-0.1,1.3-0.4c1.2,1.4,2,2.9,2.6,4.5c0.1,0.4,0.3,0.8,0.4,1.1c-2.5-0.2-5.3-0.3-8.4-0.3c-7.9,0-15.8,1.2-23.8,3.5
				c-1.2,0.3-2.2,0.7-3.2,1c-2.2-2.3-4.3-3.5-6.3-3.5c-1.2,0-2.1,0.5-2.6,1.5c-0.2,0.5-0.4,1.1-0.4,1.7c0.7,1.3,1.4,2.5,2.1,3.8
				c-0.2,0.3-0.4,0.6-0.4,0.9c0,0.5,1.7,2.9,5.1,7.2c5.7,9.5,9.1,14.2,10.3,14.2c0,0,0.9-0.3,2.6-0.9c0.6,0.3,1.2,0.5,1.6,0.5
				c2.2,0,6.4-1.8,12.6-5.4c6.5-3.8,9.8-5.7,9.9-5.7l32.1,0.3c2.4,0.8,6.8,2.3,13.5,4.5c6.4,1.9,12.2,2.8,17.4,2.8
				c3.5,0,6.6-0.3,9.3-0.8c0.5,1.6,1.4,2.3,2.7,2.3c2.3,0,4.3-2.1,6-6.2c0.6-0.5,1.2-1.1,1.6-1.8c1.4-2,2.1-5.7,2.1-11.1
				c0.5-1.6,0.4-3.2-0.2-4.6c0-0.1-0.1-0.2-0.1-0.3c-0.2-1.5-0.6-2.4-1.2-2.7c-0.4-0.2-0.9-0.2-1.6,0c-1.8-0.9-4.3-1.3-7.5-1.3
				c-3.5,0-8.6,1.1-15.4,3.2c-1.1,0.3-2.1,0.6-3.2,0.9c0-0.4,0-0.8,0-1.3c0-1.8-1.2-3.9-3.5-6.3c-1.6-1.6-2.6-2.3-3.2-2.2
				c-0.8-7.6-1.2-12.6-1.2-14.9c0-1,0.1-1.8,0.3-2.5c0.3-0.7,0.5-1.3,0.6-1.8c3.9,0.6,6.9-0.6,8.8-3.7c1.1-1.7,2.3-4.3,3.8-7.7
				c0.8,0.2,1.8,0.7,3,1.3c0.6,1.3,2.1,2.8,4.3,4.7c3.5,2.8,6.7,4.2,9.8,4.3c0.4,0,0.8-0.1,1.2-0.3c0.1,0.1,0.3,0.2,0.4,0.3
				c10,5.5,17.7,8.3,23.1,8.3c1.9,0,3.5-0.4,4.8-1.1c1.7-1,2.5-2.6,2.5-4.7c0-1.5-4.9-5-14.7-10.4c-13.3-7.3-19.9-11-19.9-11.1
				c-2.4-1.6-4.9-3.7-7.4-6.3c-2.7-2.9-4.8-5.1-6.3-6.6c-2.2-2.1-4.7-4-7.4-5.6C668.7,433.5,667.6,431.8,665.9,430.9 M623,441.8l3,0
				c-0.2,0.4-0.3,0.9-0.5,1.4C624.3,442.7,623.4,442.2,623,441.8 M656,389.7c0-3.9-1.8-7.1-5.4-9.6c-3.3-2.2-7.3-3.3-11.9-3.3
				c-4.8,0.1-8.8,1.3-12,3.8c-3.6,2.8-5.4,6.8-5.4,11.8c0,0.2,0,1.3,0,3.4c0.1,0.9,0.2,1.8,0.4,2.7c-1.3,1.2-2,2.5-2,3.8
				c0,0,0.3,1.5,0.8,4.3c0.9,2.8,2.3,4.3,4.2,4.3c1.6,0,2.5-0.9,2.8-2.8c2.7,1.8,6.2,2.8,10.5,2.8c6,0,10.8-3,14.3-9
				C654.7,397.5,656,393.4,656,389.7z"/>
		</g>
	</g>
</g>
<g transform="matrix( 1, 0, 0, 1, 0,0) ">
	<g>
		<g id="Layer3_0_FILL">
			<path fill="#FFFFFF" d="M663.5,431.3c-0.3-0.3-0.6-0.6-0.8-0.8c-1.4-1.2-2.3-0.9-2.7,0.8h-6.6c-2.6-0.3-4.9-0.3-6.9,0
				c-3.1-0.7-7.8-0.8-14.1-0.2c-0.4,0.1-0.8,0.1-1.3,0.2c-12.3-2.5-20.5-2.7-24.6-0.7c-1.2,0.6-2.1,1.6-2.7,2.9
				c-4.5,1.2-8.2,5.2-11.2,12.1c-1.2,2.7-2.1,5.6-2.9,8.8c-0.1,0.6-0.3,1.1-0.3,1.6c-0.3,0.6-0.6,1.2-0.9,1.8
				c-0.8,1.5-1.2,3.5-1.2,5.9c0-0.1,0.7,2.5,2,7.9l0,1.1c0,0.6,0.3,1.2,0.8,1.8c2,6,3.9,9,5.7,9c0.3,0,0.6,0,0.8-0.1
				c1.3,1.7,2.8,2.6,4.7,2.6c2,0,3.9-0.9,5.8-2.8c0.3-0.3,0.5-0.5,0.7-0.8c1.1-0.8,2.4-1.7,3.8-2.9c0-1.4-1.8-3.8-5.5-6.9
				c-1.8-1.6-3.3-2.9-4.5-3.9c-1.9-2.7-3.3-5-4.3-6.8c-0.1-0.8-0.1-1.6,0-2.6c0.5-3.4,0.8-5.7,0.8-7.1c0-1.4-0.1-2.6-0.4-3.5
				c0-0.1,0.1-0.1,0.1-0.2c1.5-4.1,3.3-6.8,5.5-8c0.1,0.5,0.2,0.9,0.4,1.2c0.3,0.5,0.6,0.9,1,1.2c-0.6,0.4-1.1,0.8-1.4,1.3
				c-2.1,0-3.2,1.7-3.2,4.9c0-0.2,0.3,0.6,0.8,2.4c0.3,0.7,0.8,1.3,1.3,1.8c-2-0.7-3,0.6-3,3.9c0,0.2,0,0.4,0,0.6
				c-0.4,0.6-0.6,1.3-0.6,2c0,0,0,0,0,0c0.6-0.4,1.4-0.7,2.5-0.7c0.4,0,3.2,0.2,8.2,0.6l16-0.2c0.1,0,0.3,0,0.6-0.1
				c0.4-0.1,0.8-0.1,1.4-0.1c0.7,0,1.4,0.1,1.9,0.3c0.7-0.1,1.3,0.1,1.8,0.5c0.7,0.5,1.1,1.5,1.3,2.8c1.1-1.8,1.7-2.8,1.7-2.9
				c0.3-0.6,0.1-1.3-0.5-1.9c-0.4-0.4-0.9-0.7-1.5-0.9c0-0.4,0.1-0.9,0.1-1.4c0-0.5,0-1-0.1-1.5c0.1-0.1,0.3-0.3,0.3-0.5
				c0.4-0.6,0.5-1.4,0.5-2.1c0-1-0.3-1.8-1-2.5c0.2-0.3,0.3-0.7,0.3-1c0-2.3-1.5-4.1-4.6-5.6c-1.1-0.5-2.3-0.9-3.6-1.3
				c0,0,0.1-0.1,0.1-0.1c3.6,0.7,6,1,7.5,1c0.2,0,0.5,0,0.6-0.1c0.4,0.7,0.8,1.5,1.4,2.5c1.7,3,2.5,5.7,2.5,8
				c0,2.8-0.4,6.5-1.1,11.1c-0.9,5.5-1.4,9.3-1.5,11.3c-0.1,0.9-0.8,4.7-2.1,11.4c-1,5-1.7,8.4-1.9,10.2c-1,0.1-2.1,0.2-3.4,0.3
				c-3.7,0.1-6,0.3-6.9,0.5c-2.2,0.5-3.3,1.6-3.3,3.3c0,0.8,0.2,1.4,0.5,1.8c0.5,0.6,1.4,1,2.6,1.3c-1.7,0.3-3.1,0.5-4.2,0.8
				c-7.2-1.8-12.1-3-14.8-3.5c-3-0.5-5.1-0.4-6.4,0.5l-11.9-0.3c-3.3-0.4-5.6-0.2-6.9,0.4c-0.8,0.4-1.3,1.1-1.3,2.1
				c0,2.4,0.4,4.3,1.2,5.6c0.5,0.9,1.9,3.2,4,6.9c0.4,0.8,1.3,2.8,2.8,6c0.2,0.4,0.5,1.2,0.8,2.5c0.2,0.8,0.6,1.3,1.4,1.6
				c1.8,0.8,8.1,1.2,18.7,1.2c1.2,0,2.2-0.3,2.8-1c0.5-0.5,0.7-1.1,0.7-1.9c0-0.3-0.1-0.8-0.3-1.4c3.9-0.2,8.7-1.2,14.5-3
				c1-0.3,1.8-0.6,2.6-0.9c0.6,0.1,1.3,0.3,2,0.5c2.9,0.7,4.4,1,4.6,1c1,0,1.8-0.3,2.4-1c0.3-0.3,0.7-0.7,1-1c0.3,0,1.2,0.3,2.9,0.8
				c1.6,0.5,2.8,0.8,3.5,0.8c0.6,0,1.2-0.3,1.7-0.8c0.5-0.6,1-0.9,1.6-0.9c0.3,0,0.8,0.5,1.5,1.4c0.7,0.9,1.6,1.3,2.8,1.3
				c0.7,0,1.7,0.7,3.1,2.1c1.4,1.4,2.7,2.1,3.9,2.1c4.6-1.6,6.9-2.5,7-2.5c0.7,0,2,0.3,4,1c2,0.7,3.4,1,4,1c1.2,0,2.1-0.5,2.5-1.6
				c0-0.1,0-0.1,0-0.2c0.4,0.1,0.7,0.2,0.9,0.3c0.3,0.1,0.9,0.4,1.8,0.9c0.2,0.5,0.4,1.1,0.8,1.6c1.1,2,2.3,3,3.8,3
				c0.5,0,1.6-0.5,3.3-1.5c0.8,0.2,1.5,0.3,2.2,0.3c0.6,0,3.4,0.2,8.5,0.5c1.1,0,2-0.3,2.5-1c0.3-0.3,0.4-0.7,0.5-1.1
				c0.4-0.3,0.9-0.6,1.3-1c2.5-2.1,4-4.1,4.5-6.2l1.5-4.8c0.8-2.4,1.2-4.3,1.2-5.6c-2.4-4.7-4-7.1-4.8-7.1s-1.3-0.3-1.6-1
				c-0.2-0.7-1.1-1-2.6-1c-0.2,0-0.8,0.3-1.6,0.8c-0.8,0.5-1.2,0.7-1.3,0.8c-1.6,0-3,0.3-4,0.9c-6.2,0.3-12,1-17.3,2.1
				c-1,0.2-2,0.4-3,0.5c0-0.2,0-0.5,0-0.8c0-2.2-0.7-4.4-2-6.8c-0.4-0.7-0.8-1.3-1.3-1.9c-0.3-2.3-0.9-5.3-1.9-8.9
				c-1.5-5.2-2.2-7.9-2.2-8s2-3.4,5.9-9.9c3-5,4.9-8.6,5.6-10.9c0.2,0.2,0.4,0.4,0.5,0.5c2.5,2.2,4.8,3.2,6.9,3.3c0,0,0,0,0,0
				c0.1,0.1,0.1,0.1,0.1,0.2c2.1,3.1,4.2,5.7,6.3,7.8c1,1,2.5,2.6,4.3,4.7c1.6,1.7,3.1,2.9,4.5,3.5c0.9,0.4,2.6,0.6,5.3,0.6
				c2.4,0,5,0.9,7.8,2.6c0.5,0.3,1.2,1,2.3,2.3c1.2,1.1,2.7,1.7,4.4,1.7c3.3,0,5.6-1.2,7-3.7c0.9-1.5,1.3-3.2,1.3-5
				c0-2-0.6-3.4-1.8-4.1c-2.7-1.7-5.4-4.1-8-7.1c-1-1.2-4-3-9-5.6c-4.3-2.3-7.5-3.7-9.4-4.4c-6-2.2-10.5-5.9-13.7-11.4
				c-2-3.5-3.3-5.6-3.8-6.3c-1.7-2.3-3.8-4.2-6.3-5.6H663.5 M607.2,456.5c-1.1-0.9-2-1.7-2.7-2.2c-0.1-0.1-0.2-0.1-0.3-0.2
				c0.4,0.1,0.8,0.1,1.3,0.1c0.6,0,1.2,0,1.8,0c0.6,0.9,1.1,1.7,1.7,2.4C608.4,456.5,607.8,456.5,607.2,456.5 M625.5,453.6
				c-0.2,0.8-0.3,1.6-0.5,2.4c-3,0-5.6,0.6-7.8,1.6c0-0.3,0-0.6-0.1-0.8c-0.1-0.2-0.1-0.4-0.1-0.4
				C619.8,456.1,622.6,455.1,625.5,453.6 M616.5,439.9c-0.1,0.1-0.2,0.2-0.3,0.2c-0.4,0-0.7,0-1,0c-0.3,0-0.8-0.1-1.3-0.3
				c-0.2-0.1-0.5-0.1-0.7-0.1C614.3,439.8,615.5,439.8,616.5,439.9 M659.9,502.5c0.2,0.5,0.3,1.1,0.4,1.8c-1.3,0.1-2.1,0.6-2.6,1.5
				c-0.2,0-0.4,0.1-0.7,0.1c-0.4-0.1-0.9-0.3-1.3-0.4c-0.5-1.2-1.1-2.4-1.9-3.8c0.4,0.2,0.8,0.4,1,0.6c0.3,0.2,0.6,0.5,0.8,0.9
				c0.3,0.3,0.8,0.4,1.8,0.4C657.9,503.5,658.7,503.2,659.9,502.5 M604.2,508.3c0.2,0.6,0.4,1.5,0.7,2.7c-1.2,1-2.3,1.6-3.4,1.8
				c-0.1-0.1-0.1-0.3-0.2-0.4c-1.1-2.3-1.8-4-2-5.3C600,507,601.6,507.5,604.2,508.3 M654.1,390.5c-0.3-0.6-1.1-1.1-2.4-1.5
				c-0.4-2.6-1.8-5-4.4-7.1c-2.8-2.4-6.1-4-9.8-4.6c-4-0.6-7.3,0-9.9,2c-3,2.3-4.5,6.1-4.5,11.3c0,0.7,0,1.4,0,2.1
				c-0.3,0-0.6-0.1-0.9-0.1c-1.1,0-2,0.3-2.7,1c-0.7,0.6-1,1.5-1,2.5c0,0.1,0.2,1.1,0.5,3c0.6,2.3,1.4,4.4,2.6,6.3
				c3.7,6,9.5,9,17.5,9c5.5,0,9.8-2.3,13-7c2.3-3.3,3.5-6.1,3.5-8.5c0-0.7-0.1-1.6-0.4-2.9c-0.2-1.4-0.5-2.6-0.8-3.6
				C654.4,391.4,654.3,390.9,654.1,390.5 M639.3,384.7c0.3,0.2,0.6,0.4,1,0.6c0.9,0.6,1.4,1,1.5,1.2c-0.9-0.3-1.5-0.6-1.8-1.1
				C639.7,385.1,639.5,384.9,639.3,384.7 M630.1,470.3c-0.5,1.4-1,2.7-1.5,4l0.6,2.6C629.6,474.9,629.9,472.7,630.1,470.3
				 M618.2,479.3c0.1-0.2,0.1-0.3,0.2-0.5c-0.8-0.3-1.7-0.7-2.6-1.3c-0.7,0.7-1.2,1.5-1.5,2.4l0,0.1c0.1-0.1,0.1-0.2,0.1-0.3
				C614.7,479.5,616,479.3,618.2,479.3 M620,467c0.6-0.1,0.9-0.3,1-0.5h-1.6L620,467 M616.1,493c-1.2-0.7-1.8-1-1.8-1
				c-0.5,0.4-1,0.8-1.7,1.3c-0.6,0.4-1.2,0.7-1.7,1c2.2,0,4.2-0.3,5.9-0.9C616.6,493.3,616.4,493.2,616.1,493z"/>
		</g>
	</g>
</g>
<g transform="matrix( 1, 0, 0, 1, 0,0) ">
	<g>
		<g id="Layer2_0_FILL">
			<path fill-opacity="0.3804" d="M658.3,525.6c1.2-0.2,2.4-0.4,3.5-0.5c2.3,0.3,4.7,0.5,7.1,0.5c1.5,0,2.9,0,4.3-0.1
				c-1.4-0.3-2.9-0.6-4.3-1c0,0-0.1,0-0.2,0c-12.8,0-22.7-5.2-29.8-15.7c-1.2-0.9-2.2-1.4-3-1.5c-0.7-1.2-1.3-2.3-1.8-3.6
				c-1.5-1-2.7-2.5-3.8-4.6c-1.2-3.9-1.8-5.9-1.8-6c0-2.5,0.6-4.8,1.8-6.9c0.1-1,0.2-1.9,0.6-2.6c-0.1-0.9-0.3-1.8-0.4-2.8
				c0,0.5,0,1,0,1.6c0,0.4,0,0.9,0,1.6c-1.5,1.5-3.1,3.4-4.5,5.5c-1.4,2-2.1,3.3-2.1,3.8c0,0.1,0.1,0.9,0.3,2.2
				c-1.3,1.4-2.2,2.3-2.8,2.9c-1.9-0.3-3.3-0.4-4-0.4c-1.4,0-2.1,0.6-2.1,1.8c0,1.1,0.5,2.2,1.5,3.2c-1.8-0.4-3.3-0.7-4.3-0.9
				c-5.9-1.1-8.8-0.3-8.8,2.4c0,3.3,1.1,6.5,3.3,9.7c2.9,4.1,6.8,6.1,11.9,6.1c1.8,0,3.5,0,5-0.1c-0.1,0-0.1-0.1-0.2-0.1
				c-0.3-0.2-0.5-0.8-0.5-1.9c0-0.4,0.1-0.8,0.3-1.2c1.1,1,2.4,1.8,3.8,2.3c-0.3,0.3-0.7,0.6-1.1,0.8c0.6,0,1.2-0.1,1.8-0.1
				c0-0.1,0-0.3,0-0.4c1.4,0.5,3,0.7,4.7,0.7c1.2,0,2.3-0.4,3.1-1.3c0.5-0.4,0.9-0.9,1.4-1.3c0.6,0,2.2,0.2,5,0.7
				c0.6,0.4,1.2,0.7,1.8,1c1.9,1,3.8,1.9,5.8,2.6c0.2,0.3,0.5,0.7,0.7,1.1c1.5,2.1,2.7,3.2,3.6,3.2
				C654.2,526.4,655.5,526.1,658.3,525.6 M626.5,378.1c-2.2,2.6-4,5.6-5.6,8.9c-1.7,3.7-2.5,6.9-2.5,9.6c0,0.1,0,1.2,0,3.3
				c0.3,1.4,1,2.3,2.2,2.7c0,0.1,0,0.3,0,0.4c0.4,1.7,1,3,1.7,3.8c0,0.2,0,0.4,0,0.5c0.3,1.1,0.9,1.9,1.7,2.4
				c0.9,2.8,2.1,4.9,3.5,6.1c-0.1-0.5-0.2-0.9-0.3-1.5c-0.2-1.2-0.4-2.5-0.5-3.9c0.7,0,1.4-0.2,2-0.5c1.9,4.4,4.7,6.6,8.5,6.6
				c0.7,0,1.2-0.1,1.6-0.5c0.2-0.2,0.6-0.5,1-1c-0.3-0.2-0.5-0.5-0.8-0.8c-3-1.5-5.3-4.4-7-8.6c-0.9-2.1-1.5-4.4-2-6.9
				c-0.3-2.1-0.4-3.1-0.4-3.1c0-8.7,2.8-14.9,8.4-18.4c1.1-0.7,2.1-1.2,3.1-1.4c0.9-1.6,1.4-2.6,1.4-3.1c0-1.4-0.8-1.6-2.5-0.5
				c-1.6,1.1-3.4,3-5.4,5.7c-0.9,1.2-1.7,2.4-2.4,3.5c0.8-1.6,1.7-3.2,2.7-4.7c-0.1,0-0.2,0.1-0.4,0.2c-0.1,0-0.1,0-0.2,0
				c0-0.1,0-0.1,0-0.3c0.1-0.2,0.1-0.4,0.1-0.5c0-0.5,0-0.8-0.1-1c-0.1-0.2-0.2-0.3-0.2-0.3c-0.1,0-0.1,0-0.2,0
				c-0.4-0.9-1-1.3-2-1.1C630.6,374.1,628.8,375.5,626.5,378.1 M687.2,527.5c-0.3,0-0.5-0.1-0.8-0.1c0,0.1-0.1,0.3-0.1,0.4
				C686.6,527.7,686.9,527.7,687.2,527.5 M682.1,526.3c-0.2,0-0.3,0-0.5,0c0.4,0.6,1.1,1,2.2,1c0.3,0,0.7-0.1,1.3-0.3
				c-0.4-0.2-0.8-0.5-1.1-0.8C683.3,526.3,682.7,526.3,682.1,526.3 M605,518c-0.6-0.8-1.1-1.5-1.5-2.1c0-0.3,0-0.6,0-0.9
				c0-3.3-1.2-6.1-3.5-8.5c-2.1-2.1-4.6-3.4-7.7-4c-3-0.6-5.5-0.3-7.6,0.9c-0.2,0.1-0.4,0.3-0.7,0.4c-0.4,0-0.8,0-1.2,0
				c-0.3-1.3-0.5-2.1-0.5-2.5c0-0.7,0-1.4,0.1-2.1c-2-0.6-3.9-0.8-5.6-0.8c-3.3,0.2-4.9,1.9-4.9,5c0,0.3,0.7,1.6,2.1,3.8
				c0,0,0,0.1,0,0.1c1.4,2.2,3.5,5.1,6.2,8.9c1.4,1.9,2.6,3.7,3.8,5.2c-0.1,0.2-0.3,0.4-0.5,0.7c-0.9,1.3-1.3,2-1.3,2.3
				c0,0.1,0.3,0.7,1,2c1,1.3,2.5,1.9,4.5,1.9c0.7,0,1.4,0,2-0.1c1.5,1.3,3.1,1.9,4.9,1.9c3.1,0,5.3-1.4,6.8-4.2
				c0.1,0,0.2-0.1,0.3-0.1c4.2-1.4,6.3-2.2,6.3-2.5C608.2,522.7,607.1,521,605,518 M621.9,429.9c0-1.1-0.2-1.9-0.6-2.4
				c0.1-0.1,0.2-0.1,0.4-0.2c-0.2,0-0.4,0-0.6,0c-0.2-0.2-0.5-0.3-0.8-0.3c-0.5,0-1,0.2-1.6,0.5c-1,0.4-1.7,1.1-2.1,2
				c-0.6,0.8-1.2,1.6-1.8,2.4c-0.1,0-0.3,0-0.4,0c-0.2-0.3-0.5-0.5-0.8-0.7c-0.9-0.4-2.1-0.3-3.4,0.5c-0.2,0.1-0.4,0.2-0.6,0.4
				c-0.4-0.5-0.8-0.8-1.5-1c-1.3-0.4-2.9,0.1-4.8,1.4c-1.9,1.3-3.6,2.9-4.9,5c-1.5,2.3-2.3,4.6-2.3,6.9c0,1.1,0.1,1.9,0.3,2.3
				c0.1,0.2,0.2,0.5,0.3,0.7c-0.8-0.5-1.6-0.9-2.4-1.2c-4.2-1.3-6.3,1.7-6.3,8.9c-0.5,0.1-1,0.5-1.5,1c-0.9,1.2-1.4,3-1.4,5.6
				l0.3,4.3c0.6,2.4,1.7,3.8,3.5,4.4c0.6,2.5,1.3,4.1,2.3,4.9c0.1,0.6,0.3,1.3,0.4,1.9c0.9,3.7,1.9,6.7,3.2,9.1
				c0.4,0.1,0.9,0.3,1.3,0.6c1.4,0.9,2.2,2.3,2.5,4.3c1.7,1.4,3.6,2.1,5.8,2.1c0.8,0,1.5-0.2,2.1-0.6c0.6,0.8,1.4,1.2,2.5,1.2
				c0.5,0,1-0.2,1.5-0.6c0.6,0.5,1.4,0.7,2.5,0.7c1.8,0,3.4-1.1,4.6-3.3c2.1-2.1,3.4-4.2,4-6.2c0.3-0.9,0.4-3.4,0.4-7.4
				c0-1.5-0.8-4.4-2.4-8.8c-0.3-1.5-0.8-2.9-1.6-4.4c0-0.1-0.1-0.2-0.1-0.3c-1.9-4.7-3.1-6.3-3.8-4.6c-0.8-0.8-1.7-1.4-2.6-2
				c-1.3-0.8-2.6-1.3-3.7-1.6c-0.1-0.2-0.3-0.4-0.5-0.6c-0.6-0.8-1.2-1.5-1.9-2.2c0.4,0.3,0.9,0.4,1.6,0.4c0.9,0,1.6-0.5,2.2-1.6
				c0,0.1,0,0.2,0,0.3c0.9,2.7,2.5,4,4.7,4c1.5,0,2.5-0.6,3.1-1.9c0.3-0.6,0.5-1.4,0.5-2.1c0-4-1.2-6.8-3.5-8.4
				c1-1.4,2.1-3.1,3.5-5.1C620.3,433.4,621.9,430.6,621.9,429.9 M604.3,449.8c0,0.1,0,0.6,0.1,1.8c0.1,0.4,0.2,0.6,0.5,0.9
				c-0.8-0.7-1.8-1.3-2.8-1.9c-1.1-0.6-2.1-0.9-3-1.1c-0.1-0.1-0.2-0.2-0.3-0.4c-0.2-0.2-0.5-0.4-0.7-0.6c0.4,0.2,1,0.3,1.5,0.4
				c0.4,0.7,1,1,1.8,1c0.2,0,0.6,0,1.2-0.1C602.9,449.7,603.5,449.7,604.3,449.8 M604.7,467.6c0.9,0,1.6-0.2,2.3-0.5
				c1.3,1.2,2.9,2.1,4.6,2.6c0.1,1.2,0.1,3.2,0.1,6.2c0.2,1.1,0.5,2,0.9,2.8c-0.1,1.5-0.2,2.9-0.3,4.1l-2.6,4.9
				c-0.2,0.1-0.4,0.1-0.7,0.2c-0.5,0.1-0.9,0.3-1.3,0.5c-1.6-2.4-3.2-5-4.8-7.9c-3.5-6.2-5.3-11.9-5.3-17.1c0-0.1,0-0.2,0-0.4
				C599.5,466.1,601.8,467.6,604.7,467.6 M631.8,457.9c0,0-0.1,0-0.2,0c-1.2,0.4-2.2,1.3-3,2.6c-0.9,1.4-1.4,2.9-1.4,4.5
				c0,1.5,0.5,4,1.6,7.4c0.4,1.2,0.8,2.4,1.2,3.4l-0.2-4.1C629.8,466.5,630.5,461.9,631.8,457.9z"/>
		</g>
	</g>
</g>
<g transform="matrix( 1, 0, 0, 1, 0,0) ">
	<g>
		<g id="Layer1_0_FILL">
			<path fill="#161D24" d="M731.1,468.1c-0.7-0.5-1.2-0.7-1.6-0.8c-1.3-0.9-3.1-1.9-5.3-3c-7.2-2.9-12.3-5-15.3-6.5
				c-3.4-1.7-7.8-3.4-13.1-5.3c-0.4-0.7-0.8-1.4-1.1-2.3c-0.2-0.2-0.4-0.5-0.6-0.7c-1.2-1.1-2.5-2.5-4.1-4.4c-3.8-4.9-6.3-8-7.3-9.3
				c-1.6-1.8-3.1-3.4-4.4-4.9c-0.8-0.9-1.6-1.8-2.3-2.5c0,0.1-0.1,0.2-0.1,0.3c-0.3-0.3-0.5-0.6-0.9-0.9c-0.3-0.4-0.7-0.7-1-1.1
				c-0.3-0.3-0.5-0.5-0.8-0.8c-0.9-0.5-2.1-1-3.5-1.4c-1.3-0.3-2.3-0.6-3.2-0.9c-0.1,0-0.3,0-0.5,0.1c-1.1,0-2.2-0.1-3.1-0.1
				c-0.5,0-1,0-1.4,0c-1.6-0.4-3.8-0.7-6.8-0.8c-6,0.1-9.7,0-11-0.1h-9.3c-0.7,0.2-1.4,0.2-2.1,0.1c0,0-0.1,0-0.1,0l-0.4,0.1
				l-6.3,0.1c-6.1,0.4-11.3,0.9-15.8,1.6c-1.9,0.3-3.4,0.6-4.5,0.8c-0.2,0.2-0.3,0.4-0.5,0.6c-0.3,0.1-0.6,0.3-0.8,0.4
				c-2.6-0.5-6.6,2.8-11.9,9.9c-2.4,3.2-4.6,6.6-6.6,10.2c-1.9,3.3-2.9,5.3-2.9,6.1c0,0.3,0,0.5,0,0.8c-0.8,0.7-1.5,2.2-1.9,4.3
				c-0.5,2.2-0.8,4.6-0.8,7c0,0.1,0.4,2.4,1.3,7c0.8,3.1,1.6,5.1,2.5,6.1c0.3,0.7,0.6,1.3,1,1.8c0.3,0.2,0.5,0.4,0.8,0.6
				c0.2,0.4,1.3,1.4,3.1,3c0.2,0.2,0.9,0.8,2,2c0.1,0.2,0.2,0.4,0.3,0.5c0,0,0.1,0,0.1,0c0.4,0.3,0.8,0.6,1.2,0.9
				c1.4,1.2,3,2.4,5,3.7c0.1,0.1,0.1,0.1,0.2,0.2c0.6,0.2,1.1,0.6,1.5,1c1.2,0.7,2.4,1.6,3.6,2.6c1.7,0.6,2.8,1.1,3.3,1.4
				c-0.1,0.3-0.4,0.5-0.9,0.5c-0.5,0-0.9,0-1.4,0c-0.1,0-0.2,0-0.4,0c-0.1,0-0.1-0.1-0.2-0.1c-1.2-0.1-2.4-0.4-3.6-0.9c0,0,0,0,0,0
				c-1.2,0-2.1,0.2-2.5,0.5c-0.3,0.2-0.5,0.6-0.5,1.2c0,0,0,0.1,0,0.3c-0.1,0.3-0.2,0.5-0.3,0.8c0,0-0.1-0.1-0.2-0.1
				c-0.3-0.1-0.7-0.2-1.1-0.3c0,0-0.1,0.1-0.2,0.1c-1-0.2-2.1-0.4-3.5-0.5c-1.3-0.1-2.5-0.2-3.5-0.3c-0.3,0-0.6-0.1-0.9-0.1
				c-1.4-0.2-3.8-0.5-7.1-1c-3.4-0.5-5.8-0.9-7-1c-0.8,0-1.6,0.1-2.4,0.1c-0.5,0-1.1,0-1.7,0.1c-1.4,0.1-2.8,0.2-4.2,0.4
				c-0.1,0.1-0.2,0.3-0.3,0.4c-1.1,1.3-1.7,2.5-1.7,3.6c0,1.5,0.3,3,0.9,4.7c0.5,0.9,0.8,1.4,1,1.6c0.7,1.3,1.6,3.1,2.9,5.5
				c1.1,2,2.2,3.9,3.3,5.5c1.2,2,3.8,5.9,7.7,11.6c0.4,0.4,0.8,0.9,1.3,1.3c0.2,0.2,0.3,0.5,0.5,0.8c1.6,2.4,2.8,3.6,3.4,3.6
				c0.1,0,0.1,0,0.2,0c0.4,0.4,0.9,0.6,1.5,0.6c0.1,0,0.2,0,0.3,0c0.4,0.2,1,0.3,1.7,0.3c0.1,0,0.3-0.1,0.5-0.2
				c1.8,0,4.2-0.6,7.2-1.8c0.7-0.3,1.6-0.7,2.7-1.1c2.5-0.9,5.8-2.1,9.7-3.6c0.1,0,0.1,0,0.2,0c1.7-0.6,3.4-1.2,5.3-1.8
				c5.3-1.5,9.2-2.2,11.7-2.1c0.2-0.1,0.5-0.2,0.7-0.2c1.4-0.3,2.5-0.4,3.2-0.1c1.2-0.2,2.7-0.2,4.5,0.1c1.7,0.3,3.6,0.8,5.7,1.4
				c1.4,0.3,3.9,0.9,7.3,1.7c2.2,0.5,4.2,0.9,6,1.3c2.8,0.4,6.2,0.9,10.2,1.5c5.9,0.8,10.4,1.5,13.6,2l2.8,0.5
				c1.1,0.1,2.3,0.3,3.5,0.5h1.9c0.4,0.2,0.8,0.3,1.2,0.5c1.2,0.2,2.5,0.4,3.8,0.7c0.7,0.1,3.4,0.4,8,1c1-1,2.1-3,3.1-6.2
				c0.5-1.5,1.3-4.4,2.3-8.7c0-0.1,0.1-0.2,0.1-0.3c1.7-4.6,2.6-7,2.6-7.1c0.8-2.1,1.3-3.4,1.5-4c0.6-1.6,1-2.9,1.2-4
				c0.2-0.9,0.5-1.7,1-2.5c0.3-1.2,0.6-2.2,0.8-3.1c0-0.5,0-1,0-1.5c-0.2-0.4-0.4-0.8-0.8-1.1c-0.4-0.4-0.7-0.8-0.9-1.1l0,0
				c-0.1,0-0.1,0.1-0.1,0.1c-0.7-0.7-2-1-4.1-1c-0.1,0-0.2,0-0.3,0c-0.3,0-0.5-0.1-0.8-0.1c-0.3,0.1-0.7,0.1-1,0.3
				c-0.2,0-0.3,0-0.4,0c-2.5-0.2-6,0-10.5,0.7c-0.3,0.1-0.6,0.1-0.8,0.2c-4.6,0.5-8.7,1.1-12.3,1.8c-0.2,0-0.4,0.1-0.5,0.1
				c-0.1,0-0.2,0-0.3,0c-0.4,0.2-1,0.4-1.7,0.6c-1.2,0.3-2.4,0.6-3.5,0.6c-0.1-0.8-0.3-1.7-0.8-2.5c0-0.2-0.1-0.3-0.1-0.5
				c-0.5-2.2-0.8-4-1-5.1c-0.1-0.6-0.1-1-0.1-1.4c0-0.1,0-0.1,0-0.2l-0.2-1.5c-0.2-1.8-0.3-3.2-0.4-4.2c0-0.2-0.1-0.4-0.1-0.5
				c1.1-2.8,1.9-4.8,2.4-6c0.3-1.3,0.7-2.4,1-3.4c0-0.1,0-0.1,0-0.1c0.2-0.4,0.4-0.8,0.6-1.2c0.1,0,0.1-0.1,0.2-0.2l0,0
				c0.3-0.7,0.7-1.2,1-1.5c0.1-0.3,0.1-0.6,0.1-1c-0.1-0.9-0.3-1.6-0.6-2c0.3,0.1,0.6,0.3,0.8,0.5c0.4,0.3,0.7,0.7,0.8,1.2
				c0,0.1,0,0.1,0,0.1c0,0.1,0.1,0.4,0.1,0.7c0,0,0,0,0,0c1.7,2.1,2.9,3.9,3.7,5.5c0.6,1.3,3.4,2.6,8.3,3.7c0.1,0,0.1,0,0.3,0
				c1.7,0.9,4,2,7,3.1c4.3,1.7,7.6,2.8,9.8,3.4c1.9,0.8,3.8,1.7,5.8,2.8c1.4,0.7,3.1,1.6,5,2.7c0,0,0.1,0,0.2,0
				c0.2,0.1,0.3,0.3,0.5,0.4c1,0.8,2.1,1.2,3.3,1.4c0.7-0.7,1.6-1.4,2.5-2.1c3.9-4.8,6.4-8,7.5-9.5c1.8-2.7,3.3-5.2,4.5-7.6
				c0.1-0.4,0.2-0.7,0.2-1c0-0.1,0-0.1,0-0.1c0.1-0.3,0.2-0.6,0.2-0.9c0-0.8-0.3-1.6-1-2.4c0-0.2-0.1-0.3-0.2-0.5
				c-0.2-0.1-0.3-0.2-0.5-0.3C731.6,468.5,731.3,468.3,731.1,468.1 M666.4,433.2L666.4,433.2c0.7,0.6,1.6,1.3,2.8,2
				c0.5,0.6,1,1.3,1.6,2c2.6,3.2,4.5,5.3,5.5,6.3c0.9,1,3.3,3.6,7.1,8c0.1,0.1,0.1,0.1,0.2,0.3c2.9,4.2,5.2,7.1,6.8,8.7
				c0.2,0.2,0.3,0.3,0.5,0.5c0,0,0.1,0,0.1,0.1c0.5,0.3,1.1,0.5,1.7,0.8l0.1,0c0.1,0.1,0.2,0.1,0.3,0.2c0.1,0,0.1,0.1,0.2,0.1
				c0.9,0.4,1.9,0.8,2.9,1.3c1.5,0.7,2.9,1.4,4,2.2c0.3,0.1,0.7,0.3,1,0.4c2.2,0.8,5.3,1.8,9.4,3.1c0.5,0.2,1.1,0.5,1.6,0.7
				c1,0.4,2,0.8,3,1.1c2.5,1.1,4.6,2,6.5,2.8c-0.5,0.9-0.8,1.4-0.9,1.6h0c-1.2,1.6-2.3,3.2-3.3,4.6c-0.7,0.9-1.2,1.7-1.7,2.4
				c-6.1-3-9.5-4.7-10.3-5.2c-1.5-0.5-2.9-1-4.2-1.5c-1.8-0.8-3.6-1.6-5.5-2.4c-3.3-1.4-5.9-2.2-7.8-2.6c-1-1.2-2.3-2.5-3.9-4
				c-1.6-2.3-3.1-4.3-4.5-6.1c-2.8-3.4-5-5.6-6.6-6.6c-0.3-0.2-0.6-0.3-0.8-0.4c-0.1,0-0.2-0.1-0.3-0.1c0,0.1-0.1,0.1-0.1,0.2
				c-0.4,0.1-0.8,0.3-1.3,0.7c-1.5,1.1-2.4,2-2.6,2.9l0-0.1l-0.2,0.8c0,0.1,0.1,0.2,0.1,0.3c0.1,0.1,0.1,0.1,0.2,0.2c0,0,0,0,0,0.1
				c0.2,0.4,0.7,1.3,1.6,2.6c-0.1,0-0.1,0-0.2,0c-0.6-0.2-1.1-0.4-1.7-0.7c-1,1.5-2,3.4-3.1,5.9c-1.4,3.3-3.3,8.2-5.8,14.9l0.1,0.5
				l0.3,0.1c0,2.2,0.4,6.1,1.1,11.9c0.3,2.1,0.5,3.9,0.8,5.4c0,0-0.1,0-0.2,0c0.4,0.1,0.7,0.3,1,0.4c0.1,0,0.1,0,0.2,0
				c0.5,0,1.1,0,1.7,0c0.1,0,0.2,0.1,0.3,0.1c0.4,0.3,0.8,0.6,1.1,0.8c0,0,0,0,0,0.1c-0.4,0-0.9,0.1-1.4,0.2
				c-0.6,0.1-1.2,0.2-1.7,0.4c-0.2,0-0.5,0-0.7,0c-0.8,0-1.7-0.1-2.5-0.3h-5.3c-0.5,0.1-1.1,0.2-1.7,0.3c-0.9,0.2-1.8,0.3-2.7,0.5
				c-0.6,0-1.1,0-1.3,0c-0.4,0-2.9,0.3-7.5,0.8c-6.3,0.5-10.7,0.9-13.1,1.1c-0.1,0-0.2,0-0.3,0.1c-0.8-0.3-1.7-0.7-2.7-1
				c-1.1-0.4-2.2-0.7-3.1-1c-0.7-0.3-1.6-0.7-2.5-1c-0.4-0.1-0.7-0.3-1.1-0.4c0,0-0.1,0-0.1,0c-0.4-0.3-1-0.7-1.7-1
				c-0.2-0.1-0.5-0.3-0.7-0.4h4.5c1.8-0.1,3.4-0.3,4.7-0.6c0.2-0.1,0.4-0.2,0.6-0.3c1.1-0.3,2.1-0.9,3.1-1.8
				c0.1-0.2,0.2-0.3,0.3-0.5c0.2,0.1,0.3,0.1,0.5,0.1c1,0,2.6-7.3,4.7-21.8c0.2-1.9,0.5-3.7,0.6-5.3c0.2-0.7,0.3-1.3,0.4-1.6
				c0.4-1.9,0.9-4.3,1.3-7.1c0.7-4.7,1.1-7.1,1.2-7.4c0-0.3,0.1-0.6,0.2-0.9c0-0.4,0-0.7,0-0.9c-0.2-1.6-0.9-3.2-2-4.9
				c-1.1-1.5-1.8-2.4-2.1-2.9c-0.5-0.4-1.1-0.8-1.9-1.2c-1-0.5-1.7-0.8-2.2-0.8c0-0.1,0-0.3,0-0.4c0-1.4-1-2.1-2.8-2.1
				c-1.9,0-2.9,0.7-2.9,2.2c0,0,0,0.4,0.2,1c-0.4-0.3-0.9-0.5-1.6-0.6c0.6-0.6,0.9-1.2,0.9-1.8c0-2.2-1.2-3.5-3.6-3.8
				c-2-0.3-3.2,0.6-3.5,2.6c-0.5-0.4-1.2-0.5-2.1-0.3c-1.6,0.2-2.5,0.7-2.9,1.5c0,0.4,0,0.8-0.1,1h-0.1c0.1,0.3,0.2,0.6,0.4,1
				c-0.2-0.2-0.6-0.3-1-0.4c0-0.2,0-0.3,0-0.4c0.1-0.1,0.1-0.1,0.1-0.2c-0.1-0.1-0.2-0.2-0.3-0.3l-0.1,0c-0.1,0-0.4-0.2-0.8-0.5
				c-0.4-0.3-0.6-0.5-0.8-0.6h-1.2c-0.3,0.3-0.7,0.5-1.2,0.8l0,0.1l0,0c-0.2,0.1-0.4,0.3-0.5,0.4c-3.1,1.9-4.6,2.9-4.7,2.9
				c-0.2,0-0.3-0.1-0.4-0.1c-0.1,0-0.1-0.2-0.1-0.5c0-0.9,1.2-2.1,3.5-3.8c0,0,0.1-0.1,0.2-0.1c0.2-0.5,0.7-0.9,1.4-1.4
				c0.8-0.6,1.6-1,2.5-1.3c0.6-0.5,1.1-0.7,1.5-0.7c0,0,0,0,0,0c1.2-0.2,2.6-0.4,4.4-0.8c4.6-0.8,7.1-1.3,7.5-1.4
				c2.6-0.3,5.2-0.6,7.6-1c0.4,0,0.8-0.1,1.2-0.1l10.8,0.1l23.5,1.5c0.3,0,0.6,0,0.8,0c-0.2-0.6-0.3-1-0.3-1.3
				C664.3,431.3,665,431.7,666.4,433.2 M698.9,502.9l0.1,0.6c0,0.3-0.9,2.2-2.8,5.6c-1,3.4-2.3,7.2-3.7,11.3
				c-0.6,1.8-1.2,3.3-1.6,4.6c-2.1-0.5-5-0.9-8.7-1.2c-1.5-0.1-2.9-0.2-4.2-0.3c-8.1-1.6-14.7-2.7-19.8-3.2c-3-0.3-7.2-0.8-12.5-1.6
				c-6-0.9-10.3-1.6-13-2c-2.9-0.4-5.3-0.7-7.3-0.8c-0.1,0.1-0.1,0.1-0.2,0.1v0.1c-0.4-0.2-0.9-0.3-1.5-0.3c0.3-0.1,0.6-0.3,0.8-0.4
				c-2.3,0-5.8,0.5-10.4,1.5c-1.3,0.3-2.4,0.6-3.4,0.9c-0.3-0.5-0.5-1-0.8-1.5c-1.7-2.9-2.8-4.8-3.2-5.5c-0.2-0.4-0.3-0.9-0.5-1.3
				c-0.3-1.3-0.6-2.6-0.9-3.9c1.8,0.9,3.3,1.3,4.5,1.3c1.7,0,4.3,0.6,7.8,1.7c1.7,0.6,3.4,1.1,5.1,1.6c0.1,0,0.2,0,0.3,0
				c0.9,0.2,1.6,0.4,2,0.4c0.4,0,0.7-0.1,1-0.3h1c0.4,0,0.8,0,1.3-0.1c0.6,0,1.3,0,2,0c7.1,0,17.5-0.8,31.5-2.4
				c6-0.7,11.4-1.4,16.1-2.1c0.7,0,1.4,0,2.2,0c2.5,0,5.9-0.4,10-1.3l6.3,0.1c0-0.1,0.1-0.1,0.1-0.2c0.4,0,0.8,0.1,1.3,0.1
				C698.3,503.7,698.7,503.2,698.9,502.9 M611.3,442.3c0-0.2,0-0.4,0-0.5c0.5,0.8,1.2,1.1,1.9,1.1c1.1,0,2-0.3,2.6-1
				c0.2-0.3,0.4-0.6,0.5-0.9c0.5,0.5,1.1,0.9,1.8,1c-0.3,0.5-0.4,1.2-0.4,2.1c0,0,0.1,0.5,0.4,1.5c0.6,0.9,1.5,1.4,2.9,1.4
				c1.5,0,2.5-0.6,3-1.6c0.3-0.5,0.4-1.2,0.4-1.9c0-0.1,0-0.1,0-0.2c0.6,0.4,1.3,0.6,2.3,0.6c0.8,0,1.4-0.4,1.8-1.1
				c0.1,0.2,0.2,0.4,0.3,0.7c0.2,0.3,0.4,0.5,0.6,0.8c-0.9,0.6-1.3,1.6-1.4,3c-0.4-0.1-0.8-0.2-1.3-0.2c-2.4-0.2-3.6,0.5-3.6,2
				l0.2,1.8c0.2,0.7,0.5,1.2,0.9,1.5c-0.4,0.1-0.8,0.2-1.2,0.3c-0.5,0-0.9,0-1.1,0c-0.4,0.1-0.7,0.1-1.1,0.3
				c0.5-0.3,0.9-0.7,1.2-1.3c0.3-0.6,0.5-1.3,0.5-2c0-1.2-1.1-1.9-3.3-2c-1.7-0.1-2.7,0.5-3.2,1.7c-0.3,0.4-0.5,0.9-0.5,1.5
				c0,0,0.1,0.4,0.3,1.1c0.2,0.4,0.6,0.6,1,0.9c0.3,0.1,0.6,0.3,0.9,0.4c-4.7,0-7.7-0.3-8.9-0.9c0.1-0.5,0.2-1.3,0.2-2.4
				c0-0.7-0.4-1.3-1.2-1.8c-0.8-0.5-1.6-0.7-2.6-0.6c-1.4,0.1-2.4,0.5-3,1.4c-0.5-0.5-0.9-0.9-1.4-1.3c0.2-0.7,0.5-1.4,1-2.2
				c0.7-0.3,1.6-0.7,2.6-1.1c0,0.1,0,0.1,0,0.2c0,1.3,0.5,2,1.7,2c2.4,0,4-0.6,4.8-1.8C611.1,444.1,611.3,443.3,611.3,442.3
				 M595.3,448.5c0,0.1-0.4,1-1.3,2.8c0,1-0.1,2.2-0.3,3.5c0,0.3-0.1,0.6-0.2,1c0.1,0.4,0.2,0.9,0.3,1.5c0.1,0.3,0.2,0.6,0.3,0.9
				c0.2,3.4,1.7,6.6,4.3,9.6c0.3,0.3,3.8,3.6,10.7,10c-0.3,0.3-0.6,0.7-1,1c-2.1,2.5-3.7,4.5-4.8,6c-0.1-0.1-0.1-0.1-0.2-0.1
				c-2.5-1.7-4-2.9-4.7-3.5c-0.8-0.6-1.5-1.2-2.3-1.7c-0.2-0.3-0.5-0.5-0.8-0.8c-2.7-2.8-4.4-4.9-5.2-6.1c-0.2-0.6-0.4-1.1-0.5-1.6
				c0,0,0,0,0,0c-0.2-1-0.5-2.5-0.7-4.5c-0.1-0.6-0.2-1.1-0.3-1.6c0-0.4,0-0.7,0-1v-0.1c0.1-2.1,0.4-4,0.7-5.6
				c0.2-0.4,0.5-0.7,0.7-1.1c0.1-0.6,0.2-1.2,0.4-1.7c0.2-0.5,0.5-1,0.9-1.6c0.9-3,2.1-4.8,3.5-5.5l0.2-0.1
				C595.2,448.1,595.3,448.2,595.3,448.5 M604.5,459.6c0.3,0.2,0.5,0.4,0.8,0.6c1.8,0.4,3.8,0.7,6,0.9l8,0.1
				c1.4-0.2,2.6-0.4,3.8-0.6c0.4,0.1,0.7,0.1,1,0.1c0.9,0,1.9-0.1,3-0.3c2-1.3,3.3-1.9,4.1-1.9l0.1,0.4c-0.2,0.4-0.7,1.2-1.6,2.4
				c-0.8,1.1-1.3,1.9-1.4,2.4v4.2c-0.3,1.9-0.6,4.2-0.9,6.8c-1.4,8.5-2.7,13.1-3.9,14.1c-0.2,0.4-0.6,0.9-1.3,1.4
				c-3.1,0.6-6.2,0.9-9.5,0.9c-0.4,0-0.8-0.1-1.3-0.3c-0.9,0.5-2,1.1-3.2,1.7c-0.3,0-0.5,0-0.5,0l0-0.1c-0.1,0.1-0.2,0-0.2-0.4
				c0-0.3,1-1,3-2.1v-0.1c0.7-0.9,1.5-1.8,2.4-2.9c1.7-2.1,3.6-4.2,5.6-6.3c0-0.1,0.1-0.2,0.1-0.3c0.3-0.2,0.6-0.5,0.8-1
				c0.1-0.4,0.2-0.7,0.2-1.1c0-0.6-0.2-1.5-0.6-2.8c-0.7-0.7-1.4-1.5-2.1-2.2c-2.3-2.4-4.2-3.8-5.5-4.4c-1.4-1.3-2.9-2.7-4.7-4.2
				c-1.1-0.9-2-1.7-2.9-2.5c-0.1-0.2-0.3-0.4-0.4-0.7c-1.1-0.1-2-0.5-2.5-1.3c-0.5-0.6-0.7-1.2-0.7-1.8v-0.8
				C601.1,457.6,602.6,458.2,604.5,459.6 M631.6,449.8c-0.1,0-0.2,0.1-0.3,0.1c-0.3,0.1-0.7,0.3-1.3,0.6c0.2-0.3,0.3-0.5,0.3-0.8
				C630.7,449.7,631.1,449.7,631.6,449.8 M595.3,503.3c0.2,1.4,0.5,2.6,0.7,3.6c0.9,2.8,1.8,5,2.6,6.6c0.7,2,1.3,3.6,2,5
				c-0.1,0.1-0.2,0.1-0.3,0.1c0.2,0.1,0.3,0.2,0.5,0.3c0.4,0.7,0.8,1.3,1.2,1.8c-0.1,0-0.2,0-0.3,0c0.1,0.1,0.2,0.3,0.3,0.5
				c-0.1,0-0.1,0-0.2,0c0.5,0.5,0.9,1.1,1.4,1.7c-0.2,0.3-0.5,0.5-0.9,0.5c-0.4,0-1.2-0.6-2.3-1.7c-5.3,1.6-8.1,2.5-8.5,2.6
				c-1.4,0.5-2.9,1.1-4.4,1.8c-0.6-0.9-1.4-2-2.3-3.4c-0.4-0.6-0.8-1.1-1.1-1.6c-1.4-2.5-2.5-4.4-3.3-5.9c-0.7-0.8-1.3-1.7-1.8-2.6
				c-0.6-0.9-1.1-2-1.6-3.2c-0.4-0.5-0.9-1.2-1.5-2c-1.9-2.6-2.8-4.1-2.8-4.7v-0.7c0.4,0.4,0.9,0.9,1.4,1.4h1.9c2.1,0.4,4.8,0.7,8,1
				c4,0.4,7.4,0.7,10.4,0.9c0-0.3,0-0.5,0-0.5C594.6,504.1,594.9,503.6,595.3,503.3 M628.3,461.5v0.2c0.1-0.1,0.1-0.2,0.2-0.3
				C628.4,461.4,628.3,461.4,628.3,461.5 M612,467.4c0-0.1,0-0.1,0-0.2c-0.1,0-0.2,0-0.3,0C611.8,467.2,611.9,467.3,612,467.4
				 M614.7,444c-0.2,0-0.4,0-0.7,0c-0.1,0-0.3,0-0.5,0c-0.7,0.1-1.2,0.2-1.6,0.5c-1.2,0.6-1.8,1.5-1.8,2.8c0,0,0.1,0.4,0.3,1.1
				c0.1,0.2,0.3,0.4,0.6,0.6c0.4,0.8,1,1.3,1.8,1.3c1.7,0,2.8-0.5,3.3-1.6c0.2-0.5,0.3-1.2,0.3-2.2
				C616.5,444.9,615.9,444.1,614.7,444 M663,389.7c-0.6-6.4-3.2-11.4-7.8-15.2c-4.8-3.9-10.6-5.7-17.6-5.4
				c-6.9,0.3-12.7,2.5-17.5,6.8c-5.3,4.6-8,10.7-8,18.1c0,0.2,0,1.6,0.1,4.4c0.3,3.1,1.1,6,2.4,8.5c4.1,8.1,12.6,12.2,25.5,12.2
				c9,0,15.5-3.9,19.5-11.7c1.9-3.7,3-7.5,3.4-11.5c0.1-1,0.1-2.1,0.1-3.1C663.1,391.7,663,390.7,663,389.7 M649.7,385
				c2.5,3.7,3.8,6.4,3.8,8.3c0,3.5-0.5,6.5-1.7,8.9c-2.4,5.2-7.1,7.8-13.9,7.8c-7.4,0-12.4-2.4-15-7.2c-1.2-2.3-1.9-5.1-1.9-8.5
				c0-1.9,1-4.3,3-7.3c2-2.8,4-4.9,6.2-6.3l2-0.3c1.4-0.1,2.4-0.2,3-0.2c1.4,0,2.8,0.5,4.5,1.4c1.6,1,2.4,1.5,2.4,1.5
				c0.6,0,1-0.1,1.2-0.3c0.1-0.1,0.1-0.2,0-0.3c0-0.1-0.3-0.6-0.8-1.5c-0.6-0.9-0.9-1.4-1-1.5l0.1-0.8
				C644.2,378.8,646.9,380.8,649.7,385 M560,490.5c0.1,0,0.2,0,0.3,0c0.2-0.1,0.3-0.1,0.5-0.2c-0.2,0-0.5,0.1-0.7,0.1
				C560.1,490.4,560,490.4,560,490.5z"/>
		</g>
	</g>
</g>
<g transform="matrix( 1, 0, 0, 1, 0,0) ">
	<g>
		<g id="Layer0_0_FILL">
			<path fill="#161D24" d="M819.7,418.8c-1.5,0-2.9,0.4-4,1.1c-1.2,0.8-1.8,1.9-1.8,3.1c0,0.1,0.2,1.2,0.5,3.5
				c0.8,1.9,2.3,3,4.6,3.3c0.1,0,0.2-0.1,0.3-0.1c0.2,0.1,0.4,0.1,0.7,0.1c0.5,0,0.9-0.1,1.3-0.3c0.8-0.1,1.5-0.4,2-0.9
				c0.1,0,0.2,0,0.3,0c0.5-0.5,0.9-1.1,1.2-1.8c0.4-1,0.5-2.1,0.5-3.4c0-1.6-0.6-2.8-1.8-3.7C822.5,419.1,821.2,418.7,819.7,418.8
				 M798.7,515C798.7,515,798.7,515,798.7,515v0.1c0.2-0.1,0.3-0.1,0.5-0.1C799,515,798.8,515,798.7,515 M777.5,486.8
				c-0.8,0.7-1.5,1.4-2,2c-0.9,1.4-1.7,2.9-2.4,4.4c-0.1,0.3-0.1,0.5-0.1,0.8c0,0,0,0.1,0,0.2c0,0.1-0.1,0.2-0.1,0.3
				c-0.3,0.6-0.6,1.1-0.8,1.5c-0.1,0.7-0.3,1.4-0.4,2c0,0.3,0,0.6,0,1.1c0,0.1,0,0.2,0,0.4c0,0,0,0.1,0,0.1c0,0,0,0.1,0,0.1
				c-0.2,1.1-0.2,2.3-0.3,3.5c-0.2,1.3-0.2,2.2-0.3,2.8c0,0.7,0,1.2,0,1.4c0,0.6,0,1.3,0,2.2c0,1.2,0.2,2.2,0.3,2.9
				c0,0.1,0,0.2,0,0.3c0,4.9,1,8.9,3,12c0.9,1.5,2,2.7,3.4,3.7c0.2,0.3,0.5,0.5,0.8,0.8c1.7,1.5,4.3,2.3,7.9,2.3
				c0.6,0.2,1.1,0.4,1.5,0.5l3.5,0c0.5,0.1,1.1,0.1,1.8,0.1c4.9,0,8.6-0.9,11.1-2.7c1-0.7,1.8-1.4,2.2-2.1c0.1,0,0.1-0.1,0.2-0.1
				c0-0.1,0-0.1,0-0.2c0.5-1.6,0.9-3,1.2-4.2c0-1.3,0-1.9,0-2c-0.1-2.5-0.1-4.5,0-5.9c0,0,0-0.1,0-0.1v0c0-0.8-0.1-1.6-0.2-2.5
				c0.1-0.3,0.2-0.6,0.3-1c-0.1-0.8-0.2-1.6-0.2-2.2c0-0.3,0.1-0.6,0.1-0.9c-0.1,0-0.1,0.1-0.2,0.1c0-0.6,0-1.2,0-1.7
				c0-0.1,0-0.1,0-0.2c-0.2-0.1-0.4-0.2-0.7-0.3c-4.5,0-7.9-0.1-10.2-0.2c-0.2,0.1-0.5,0.2-0.6,0.4c-0.2,0.1-0.3,0.3-0.5,0.4
				l-0.2,3.4c0,0.1,0,0.1,0,0.1v2.1c0,0,0,0.1,0.1,0.2c0,0.4-0.1,0.8-0.1,1.3c0,0.1,0.1,0.2,0.2,0.3c1.5,0,2.9,0,4.4,0.2
				c0.2,0,0.3,0.1,0.3,0.3c0,0.3-0.5,0.5-1.5,0.8c-0.1,0-0.3,0.1-0.3,0.1c-0.1,1-0.3,2.1-0.4,3.4v2.5c-1,1.4-2.4,2-4.1,2
				c-2.8,0-4.9-0.1-6.2-0.5c-1.1-0.3-2.1-0.8-2.8-1.3c-0.8-0.1-1.5-1-2.1-2.5c-0.1-0.4-0.2-0.8-0.3-1c-0.5-0.9-0.9-2.2-1.1-4
				c0-3.7,0-5.5,0-5.6v-5c0-0.1,0-0.2,0-0.3c0-0.1,0-0.1,0-0.1c0-0.1,0-0.1,0-0.2v0c0-0.1,0-0.1,0-0.1c0-0.1,0-0.1,0-0.1
				c0-0.6-0.1-1.2-0.1-1.8c0.2-0.6,0.4-1.1,0.6-1.6c0.2-1.1,0.6-2.1,1.3-3c0.5-1.1,1.3-2,2.2-2.8c0.4-0.3,0.7-0.5,1.1-0.6
				c0.1-0.1,0.2-0.2,0.3-0.3c3-0.6,6.6-0.9,11-0.9c0.6,0,1.6,0.1,3,0.4c1.3,0.3,2.6,0.4,3.8,0.4c0.3,0,0.6-0.1,0.8-0.3
				c0.1-0.5,0.3-1,0.3-1.4c0-0.1,0-0.2,0-0.4c0-0.6,0.1-1.4,0.3-2.3c0.2-0.4,0.4-1.1,0.6-2.1c0-0.2,0-0.4-0.2-0.5v-0.2
				c0-0.6-0.2-0.9-0.6-1.1c-0.6-0.3-2.2-0.6-4.8-1h-6.9v0.1c-4.4-0.7-8.2-0.5-11.4,0.6C781.7,483.8,779.9,484.7,777.5,486.8
				 M806.2,508c0,0,0,0.1,0,0.2c0-0.1-0.1-0.1-0.1-0.2C806.1,508,806.2,508,806.2,508 M781,506C781,506,781.1,506,781,506v0.6
				C781,506.4,781,506.2,781,506 M783.2,421.7c-0.4,0.1-0.7,0.2-1.1,0.3c-3.4,2-5.3,3.1-5.7,3.4c-0.2,0.1-0.8,0.6-1.7,1.3
				c-1.2,2.4-2.2,5-2.8,7.9c-0.2,0.7-0.4,2.5-0.6,5.4c0,0.1,0,0.3,0,0.4c0,0.3,0.1,0.9,0.2,1.6c-0.1,0.2-0.1,0.4-0.1,0.6
				c-0.1,1.2-0.2,3.5-0.2,7l0.3,4.6c0.2,1.2,0.4,2.1,0.8,2.9c0,0.4,0,0.9,0,1.4c0.2,0.6,0.4,1.3,0.7,2c1.1,2.9,2.4,4.6,3.9,5.3
				c1.1,1.1,2.3,2.1,3.8,3c0.9,0.1,2.5,0.4,4.8,0.6c3.4,0.4,5.9,0.7,7.4,0.9h0.3c2.9-0.3,5.1-0.6,6.7-0.9c1.1,0,2.1-0.1,2.9-0.4
				c0.2,0,0.4,0.1,0.7,0.1c1.4,0,2.5-0.2,3.2-0.6c0.4-0.2,0.6-0.5,0.6-0.9c0-0.3,0-0.6,0-1c0.1-0.3,0.2-0.6,0.2-0.8
				c-0.2-1-0.5-2.1-0.9-3.1c-0.7-1.9-1.3-2.9-1.9-2.9h0c-1.1,0.4-2.3,0.6-3.7,0.8c-0.1,0-0.2,0.1-0.3,0.1c-0.5,0.2-1,0.4-1.4,0.5
				l-10-0.1c-1.8-0.6-3.4-1.1-4.7-1.5c-0.3-0.3-0.5-0.5-0.8-0.8c-0.4-0.5-0.7-1.1-1-1.7c-0.5-0.9-0.8-1.8-1.1-2.7
				c0-1.8-0.1-4.3-0.2-7.4c-0.1-2-0.2-3.6-0.2-5c0.3-2.5,0.7-4.4,1.2-5.8c0.1-0.2,0.2-0.4,0.3-0.6l0-0.1c0-0.7,0.4-1.6,1.3-2.8
				c0.3-0.5,0.7-0.8,1-1.1c0.6-0.5,1.4-1,2.4-1.3c0.7-0.5,1.4-0.8,2-0.9c0.3,0,0.5,0,0.8,0c1.2-0.3,2.5-0.4,4-0.4c0.4,0,0.7,0,1,0
				c1.3,0.6,2,0.9,2.2,1c0.3,0.2,0.7,0.9,1.2,2c0.1,0.2,0.2,0.5,0.3,0.7c0,0-0.1,0.1-0.1,0.1c0.2,0.5,0.3,1,0.5,1.6
				c0.2,0.7,0.3,1.4,0.3,2.1c0,0.1-0.1,0.8-0.4,2.1c0.2,0.3,0.5,0.6,1,0.7c1.1,0.3,3.5,0.5,7.2,0.5c0.8,0,1.2-2.1,1.3-6.2
				c0-0.7-0.2-1.4-0.5-2c-0.1-1.6-0.6-3.2-1.5-4.9c-1.3-2.4-3.1-4.1-5.4-4.9c-3.3-1.1-7-1.4-11.3-1c-1.3-0.1-2.5-0.1-3.7,0.1
				c-0.7,0.1-1.2,0.3-1.7,0.4c-0.3,0-0.5,0-0.8,0C783.6,421.6,783.4,421.7,783.2,421.7 M783.9,428.1c-0.2,0.1-0.3,0.3-0.5,0.4
				l-0.1-0.1C783.5,428.3,783.7,428.2,783.9,428.1 M779.6,430.5C779.6,430.5,779.6,430.5,779.6,430.5c0-0.1,0-0.1,0.1-0.1
				C779.7,430.5,779.6,430.5,779.6,430.5 M856.7,494.6c-0.3-0.1-0.5-0.1-0.8,0c-0.3,0.2-0.5,0.6-0.6,1.2c0,0,0,0,0,0v2.6
				c0,0.2,0.1,0.4,0.1,0.7c0,0.5,0,1.1,0,1.7c0,0.4,0,0.9,0,1.5c0,0.2,0,0.4,0,0.6c0,0.1,0,0.2,0,0.3c0-0.1,0-0.1,0-0.2v16.5
				c0,0.3-0.1,0.8-0.1,1.3c0,0.3,0,0.7,0,1l-0.2,7.2c0,0.1,0,0.5,0,1.3c0.2,0.7,0.6,1.1,1.3,1.1c0.6,0,1.2,0,1.8,0
				c-0.1,0.1-0.1,0.1-0.1,0.1h0c0,0,0.1,0,0.2,0v0h6.1c0.1-0.1,0.1-0.3,0.1-0.5c0-0.4,0-0.7-0.1-0.8v0c0.3-0.3,0.3-0.7,0.3-1.2
				c-0.2-0.6-0.3-1-0.3-1.3c0-1.9-0.1-4.8-0.3-8.9c0.2-2.5,0.3-4,0.3-4.5c0.1-2.9,0.2-5.1,0.3-6.7c-0.1-0.3-0.1-0.5-0.1-0.6
				c0-0.2,0.1-0.4,0.2-0.6c0.1-0.3,0.4-0.5,0.8-0.6c0,0,0-0.1,0-0.1c0.6-0.7,1.9-1.3,3.9-1.6c2.9-0.5,5.1-0.4,6.6,0.3
				c0.3,0,0.5,0,0.7,0c0-0.1,0.1-0.2,0.1-0.3c0.1,0.1,0.3,0.2,0.5,0.2c0.5,0,1.4-2.6,2.6-7.9c0-1.9-0.6-2.9-1.7-2.9
				c-0.3,0-0.5,0.1-0.7,0.2c-0.4-0.1-1-0.1-1.6-0.1c-0.7,0-1.3,0.1-1.8,0.3c-0.2-0.1-0.4-0.2-0.7-0.3c-0.6,0.1-1.3,0.4-2,0.8
				c-1,0.2-2.1,0.8-3.3,1.7c-1.1,0.8-2,1.5-2.7,2.1c-0.3,0.2-0.5,0.3-0.8,0.5c-0.4,0.3-0.8,0.7-1.1,1.1c-0.2,0.2-0.4,0.4-0.6,0.6
				c0,0.1,0,0.1,0,0.2l-0.2,0.1c-0.4,0.4-0.8,0.7-1,1c0-0.1,0-0.1,0-0.1c0.6-1.4,1-2.4,1-3.2c0.1-0.1,0.3-0.3,0.4-0.5l-0.1-0.7
				c0-0.7-0.1-1.3-0.2-1.7c0.1-0.1,0.2-0.3,0.2-0.5c0-0.5-1.3-0.7-4-0.6c-0.9,0-1.7,0.1-2.4,0.3
				C856.8,494.7,856.7,494.6,856.7,494.6 M860.7,496.5c0.1,0,0.1-0.1,0.2-0.1c0,0,0,0.1,0,0.1c0,0,0,0.1,0,0.1
				C860.8,496.5,860.7,496.5,860.7,496.5 M816.9,494.3c-0.3,0-0.5,0.1-0.6,0.3c0,0.1,0,0.3,0,0.6c0,0,0,0.1,0.1,0.2
				c-0.1,0.1-0.1,0.2-0.1,0.3l0,0c-0.1,1.1-0.2,2.5-0.3,4.2c0,0.5-0.1,1-0.1,1.5c0.1,1,0.2,2.3,0.3,3.8v1.6
				c-0.3,2.5-0.4,4.3-0.4,5.5c0,0.6,0,1.4,0.1,2.3v0.1c0,0.2,0,1.8,0.1,5c0,0.4,0.1,0.8,0.1,1.1c-0.2,0.4-0.3,1.5-0.3,3.3l0.8,3.5
				c0.3,0.7,0.6,1.3,1,1.8c0.8,1.1,1.8,1.7,3.1,1.7c0.7,0.4,1.4,0.7,2.1,0.7c0.4,0,0.7,0,1-0.1c0.4,0.2,0.9,0.3,1.3,0.3
				c1.1,0,3.3-0.4,6.8-1.1c3.3-0.7,5.2-1.1,5.7-1.3c0.3-0.1,0.9-0.5,1.7-1.2c0.1,0.1,0.1,0.1,0.3,0.1c0.1,0,0.1,0,0.1,0
				c0,0.7,0.1,1.2,0.4,1.5c0.1,0.1,0.2,0.2,0.3,0.3c-0.1,0.2-0.2,0.4-0.3,0.5l0.1,0.7l0.5,0.1c0.3,0,1.2-0.1,2.8-0.3
				c0.5,0,1,0,1.5,0c0.4,0,0.8,0,1.1-0.1c0.3,0,0.6,0.1,0.8,0.3c0,0.1,0.1,0.1,0.2,0.1c0.2-0.1,0.5-0.1,0.9-0.1l0-1.2
				c0-0.8-0.2-2.6-0.5-5.5c0-1.3,0-2.6,0-4c0.3-5.8,0.5-9.4,0.5-10.9c0-1-0.1-2.3-0.2-3.9c0.2-4.2,0.3-7.4,0.3-9.5
				c0-0.3-0.1-0.5-0.3-0.7c0-0.4-0.1-0.7-0.2-0.8c-0.2-0.1-0.8-0.3-2-0.4v0.1c-0.5-0.1-1.2-0.2-1.8-0.2c-1.8-0.1-3.1-0.1-3.8,0
				c-0.1,0-0.3,0-0.4,0c-0.1,0-0.2,0.1-0.2,0.2c0,0,0,0.1,0,0.1c-0.1-0.1-0.2-0.1-0.3-0.1v1.1c-0.2,0.6-0.3,1.2-0.3,1.6
				c0,0.6,0,1.5,0.2,2.6c-0.1,0.3-0.1,0.7-0.2,1.3c0,0.2,0,0.5,0,0.7c0,0,0,0.1,0,0.1c0,1.2,0,2.5,0,4.1c0,0.2,0,2,0,5.5
				c0,0.7-0.1,1.3-0.2,1.9c0,1.1,0.1,2.2,0.2,3.5c0,0.1,0,0.3,0,0.3c0,0,0,0,0,0c-0.1,0.2-0.1,0.8-0.1,1.7c0,0,0,0.3,0.1,0.9
				c0.2,0,0.5-0.1,0.7-0.1c0.3,0.1,0.7,0.2,1.3,0.2v0c0.2,0,0.4,0,0.5,0l0,0H841c0,0,0.1,0,0.2,0.1c0,0,0,0.1,0,0.1
				c-0.1,0.1-0.3,0.2-0.3,0.3c-0.5,0.4-1,0.7-1.4,1c-0.1,0-0.1,0.1-0.2,0.1c-0.2,0.1-0.5,0.3-0.8,0.4c-0.4,0.2-0.7,0.4-1,0.6
				c-0.1,0-0.2,0.1-0.3,0.1c-1,0.5-1.8,0.8-2.2,0.8c0,0-0.1,0-0.1,0c-1.6,0.4-3,0.7-4.1,0.7c-0.3,0-0.5-0.1-0.8-0.1
				c-0.2,0-0.5,0.1-0.7,0.1c-1,0-1.9-0.2-2.5-0.5c0,0,0,0-0.1,0c-0.3-0.1-0.5-0.3-0.8-0.5c-0.1-0.1-0.3-0.3-0.3-0.4
				c0-0.1,0-0.1,0-0.2c-0.1-0.1-0.1-0.1-0.2-0.2l-0.1-0.5c-0.1-0.2-0.2-0.4-0.3-0.7c0-0.2,0-0.3,0-0.5c0-0.1,0-0.2,0-0.2
				c-0.2-0.6-0.3-1.3-0.4-2.1l-0.2-3.8c0-0.3,0-0.7,0-1c0-0.4,0-0.7,0-1c0.2-1.7,0.3-3.1,0.3-4c0.1-1,0.1-3.2,0.1-6.5v-5.4
				c0.1-0.5,0.1-0.8,0-1.1c0-0.4-0.3-0.8-0.8-1.1c-2.8,0-5-0.1-6.6-0.4C817.3,494.3,817.1,494.3,816.9,494.3 M845.8,500.6
				c0-0.1-0.1-0.1-0.1-0.1c0,0,0-0.1,0-0.1c0.1,0,0.1,0,0.1,0.1v0C845.8,500.5,845.8,500.6,845.8,500.6 M820.5,495.5l-0.2,0.1
				c-0.1-0.1-0.1-0.1-0.2-0.1C820.2,495.5,820.3,495.5,820.5,495.5 M823.9,432.8c-0.5-0.4-1.2-0.5-2.3-0.4c-0.1-0.1-0.2-0.2-0.4-0.2
				h-1.5c-2.1,0.4-3.7,0.6-5,0.6v2.7c0,1.5,0.1,4,0.3,7.3c0,0.1,0,1.5-0.1,4.1c0.1,0.6,0.1,1.1,0.1,1.6c0,0.6,0,1.4,0,2.3
				c-0.1,0.7-0.2,1.3-0.3,1.8c0,1,0,2.1,0,3.3l0,10.7c0,1,0.1,1.6,0.3,1.9c0.9,0.9,3,1.4,6.5,1.4c0.9,0,1.6-0.5,2.2-1.4
				c0-0.3,0-0.6,0-0.9c0.2-0.2,0.3-0.5,0.3-0.8c0-0.4-0.1-0.7-0.2-0.9c0-0.4,0-0.7,0.1-0.9v-15.1h0l0.3-9.8c0-1.5,0-2.8,0-3.8
				c-0.1-0.3-0.1-0.6-0.2-0.9c0.1-0.1,0.1-0.1,0.2-0.1c0-0.6,0.1-1.1,0.1-1.5c0-0.1,0-0.1,0.1-0.2c-0.1,0-0.1-0.1-0.2-0.1
				C824.1,433.1,824,432.9,823.9,432.8 M858,431.5c-3.4-0.2-5.7-0.1-7.1,0.5c-0.2,0.1-0.4,0.2-0.5,0.3c-1.5,0.1-2.7,0.4-3.7,0.8
				c-2.8,1.1-4.6,1.8-5.4,2H841c0.3-0.9,0.3-1.6,0-2c-0.6-0.6-2.7-0.9-6.4-0.9c-0.6,0-1.1,0.1-1.3,0.2c-0.2,0.2-0.3,0.4-0.3,0.7
				c0,0.1,0.1,0.3,0.3,0.5c-0.1,0.2-0.1,0.3-0.2,0.5c-0.1,0.3-0.1,1.1-0.1,2.4l0.3,3.9c-0.3,1.9-0.4,4.6-0.4,8.3c0,0,0,0.4,0,1.2
				c-0.1,1-0.1,2-0.1,3.3c0,0,0,2.8,0,8.2c0.1,1.8,0.2,3.3,0.3,4.5c0,0,0,0.1,0,0.1c-0.1,0.3-0.2,0.6-0.3,0.9c0,0.4,0,1.1,0,2
				c0.2,0.3,0.4,0.4,0.6,0.4c0.2,0,0.4,0,0.5-0.1c0.2,0.3,0.4,0.5,0.7,0.5c0.4,0,0.8-0.1,1-0.3c0,0,0.1,0,0.1,0c1.3,0,2.4,0,3.4-0.1
				c0.1,0,0.2,0.1,0.3,0.1c0.7,0,1.3-0.1,2-0.1c0.3,0,0.5,0,0.8,0.1c0-0.1,0-0.3,0-0.5l0-0.1c0.3-0.2,0.5-0.6,0.5-1.1
				c-0.1-0.4-0.2-0.8-0.3-1.1c0-0.3,0.1-0.7,0.1-1.1c0-0.2,0-1.1,0-2.9c-0.1-1.8-0.2-3.2-0.5-4.3c0.1-1.2,0.1-2.8,0.1-4.8
				c0.1-1.7,0.1-3.2,0.1-4.6c-0.1-0.4-0.1-0.8-0.2-1.3c0-0.3,0-1.1,0-2.5c0-0.2,0-0.5,0-0.7c0-0.2,0-0.3,0-0.5
				c0-0.4,0.1-0.8,0.1-1.1c0.1-1.3,0.2-2.1,0.5-2.4c0.3,0.4,0.5,0.9,0.8,1.5c0.6-0.4,1.8-0.9,3.4-1.4c0.8-0.3,1.5-0.4,2.1-0.5
				c0.2-0.1,0.5-0.2,0.7-0.2c1.2,0,2.1-0.1,2.8-0.1c0.2-0.1,0.4-0.1,0.6-0.1c0.8,0,1.5,0.5,1.9,1.5c0.1,0.2,0.2,0.4,0.3,0.5
				c0.1,0,0.1,0.1,0.2,0.1c0,0.5,0.1,1.1,0.2,1.6c0.2,1.3,0.3,2.2,0.3,2.8c0,0.2,0,1.7-0.1,4.4c0,2.9,0,5.1,0,6.6
				c0,1.3-0.1,3.2-0.3,5.8c-0.1,2.5-0.2,4.4-0.2,5.5c0,0.3,0.1,0.5,0.2,0.7c0.3,0.4,0.7,0.6,1.3,0.6c4.7,0,7.2-0.2,7.7-0.6
				c0.4-0.3,0.7-1.2,0.9-2.6c0-3.4,0-5.2,0-5.2c0-0.4,0-1,0.1-1.8c-0.1-0.1-0.1-0.1-0.2-0.2c0-0.9,0-1.4,0-1.5v-8.4
				c0,0,0.1-0.1,0.1-0.1c0-1.5,0-2.9,0.1-4.2l-0.2-5c-0.1-0.4-0.2-0.8-0.3-1.1c-0.2-0.9-0.3-1.6-0.5-2.3c-0.2-0.2-0.5-0.3-0.8-0.4
				c-0.1-0.5-0.2-1.1-0.3-1.6c-0.4-0.7-1.3-1.5-2.8-2.4c-1-0.6-1.7-0.9-2.1-0.6C858.2,431.6,858,431.5,858,431.5 M842.3,439.8
				c-0.1,0-0.2,0.1-0.3,0.1v0C842.1,439.8,842.2,439.8,842.3,439.8 M839.8,465.3c0-0.1-0.1-0.3-0.1-0.5l0.1,0
				C839.8,464.9,839.8,465.1,839.8,465.3 M839.8,466.4c0-0.1,0-0.2,0-0.3c0,0.1,0,0.2,0,0.4L839.8,466.4 M857.5,446.9
				c0-0.2-0.1-0.4-0.1-0.6l0.1,0V446.9 M907.5,494.9L907.5,494.9l0.3,11.9l-0.3,13.7c0.5,0.1,1.2,0.2,2,0.3c0.1,0.1,0.3,0.1,0.4,0.1
				c0,0,0,0,0,0.1c-0.4,0.2-0.8,0.4-1.3,0.7c-0.1,0.1-0.3,0.2-0.4,0.3l0,0.1c-0.5,0.4-1.6,0.9-3.3,1.5c-2.2,0.7-4.4,1-6.4,1l-0.8,0
				c0-0.1,0-0.1,0-0.2c-0.5-0.2-1-0.4-1.5-0.6c-1.1-0.1-1.8-0.8-2.2-2.2l-0.2-2c0-0.2,0-0.5,0.1-0.7c-0.1-0.2-0.1-0.5-0.1-0.8
				c-0.2-3.3-0.2-5-0.3-5c0-1.7,0.1-3,0.2-4c0-1.1,0-2.6,0-4.4c0-1.6-0.1-3.1-0.1-4.4c0.3-3,0.4-4.5,0.4-4.5c0-0.4-0.3-0.6-0.8-0.8
				c-0.6-0.1-2-0.2-4-0.3H886c-0.3-0.3-0.6-0.1-0.8,0.4c-0.2,0.1-0.3,0.3-0.3,0.4c0,0.1,0,0.1,0,0.1c-0.1,0.3-0.2,0.7-0.3,1.2
				l-0.1,6.3c0,2.3,0,3.9,0.1,4.6c0.1,1.3,0.2,2.5,0.4,3.6c-0.2,2-0.3,4.6-0.3,7.7v2.8c0.1,1.3,0.3,2.1,0.5,2.5
				c0.1,1.3,0.4,2.4,0.8,3.3c1.3,3,4.2,4.5,8.6,4.5c1.9,0,3.9-0.3,6-0.8c0.7-0.2,1.3-0.4,2-0.6c0.4-0.1,0.8-0.3,1.2-0.4
				c0.9-0.3,1.7-0.6,2.3-0.9c1.1-0.2,1.9-0.3,2.4-0.3c0,0.3,0,0.7,0,1.3c0.1,0.5,0.4,0.9,1,1.3h3.8c0.8-0.2,1.5-0.4,2.2-0.6
				c0.1,0.2,0.2,0.4,0.3,0.6c0.2-0.3,0.4-0.5,0.5-0.8c0-0.3,0-0.6,0-0.8c0-0.2,0-0.5,0-0.9c0-0.1,0-0.1,0-0.3c0,0-0.1,0.1-0.1,0.1
				c0-0.2,0.1-0.4,0.1-0.7c-0.1-1.3-0.1-2-0.1-2c0-4.2,0.1-7.3,0.3-9.5v-9.2c-0.2-3.8-0.3-7.1-0.3-10.1v-3c-1.7,0.2-2.7,0.3-2.9,0.3
				c-1.7,0-3.1-0.1-4.3-0.3C908.8,494.7,908.2,494.9,907.5,494.9 M889.9,496.3c0,0-0.1-0.1-0.1-0.1c0,0,0.1,0,0.2,0
				C889.9,496.2,889.9,496.2,889.9,496.3 M887.2,496h0.1v0C887.3,496,887.3,496,887.2,496 M892.3,496.4
				C892.3,496.4,892.3,496.4,892.3,496.4l0.1,0.3C892.3,496.6,892.3,496.4,892.3,496.4 M904.2,526.8c0,0.1-0.1,0.2-0.2,0.3
				c-0.1-0.1-0.1-0.1-0.2-0.1C903.9,526.9,904,526.9,904.2,526.8 M893,432.5c-0.1,0-0.2-0.1-0.3-0.1c-2.5-0.7-5.3-0.8-8.3-0.3
				c-1.9,0.3-3.7,0.8-5.2,1.5c-1.2,0.3-2.2,0.8-3,1.3c-1,0.7-1.6,1.5-1.8,2.5c-1.3,1.8-2.1,3.9-2.2,6.3c-0.5,0.7-0.8,2.7-0.8,6
				c0,0,0,1.3,0,3.7c0.1,1.2,0.3,2.1,0.5,2.6c-0.1,0-0.1,0.1-0.1,0.1c-0.1,0.1-0.1,0.3-0.1,0.5c0,0.6,0.3,1.6,1,3.1
				c0.3,1.3,0.7,2.6,1.4,3.9c2.1,4.2,5.8,6.4,11,6.4c1,0,2.5-0.2,4.7-0.5c0.6,0.1,1.2,0.1,2,0.1c3.3,0,5.8-0.3,7.8-0.9
				c1.6-0.4,2.4-0.9,2.4-1.5c0-0.2-0.1-0.4-0.2-0.5c0.1-0.5,0.2-1.2,0.1-2.1c0-0.7-0.1-1.3-0.4-1.8c0-0.1,0-0.3,0-0.4
				c0-0.6-0.1-1-0.5-1.3c0,0-0.1,0.1-0.1,0.1c-0.4-0.2-1.1-0.2-2,0.1c-0.1,0-0.2,0.1-0.3,0.1c-0.6,0-1.4,0.1-2.4,0.4
				c-0.6,0.1-1,0.2-1.5,0.4l0-0.1c-0.8,0-1.3,0.1-1.5,0.1c-6,0-9.8-1.3-11.4-3.8c-0.2-0.3-0.3-0.6-0.4-1c-0.1-0.2-0.3-0.4-0.4-0.6
				c-0.2-0.5-0.3-1-0.3-1.7c0-0.5,0.1-0.9,0.3-1c0,0,0,0,0,0c0,0,0-0.1,0-0.1c0.8,0.2,2,0.3,3.5,0.3c2.1,0,4,0,5.7-0.1
				c0.6,0.2,1.4,0.3,2.3,0.3c2.5,0,4.5-0.4,6-1.1c0.7-0.4,1.2-0.7,1.5-1c0.5-0.2,0.9-0.5,1.3-0.7c1.5-1,2.3-2.9,2.3-5.8
				c0-0.2,0-0.4,0-0.6c0-0.1,0.1-0.3,0.1-0.4c0-0.9,0-1.4,0-1.5c0-1-0.1-1.8-0.3-2.4c-0.3-0.9-0.6-1.9-0.9-2.9
				c-0.2-0.7-1-1.5-2.2-2.4c-0.3-0.4-0.7-0.8-1.1-1.1C897.5,433.4,895.4,432.6,893,432.5 M893.7,439.9c1.2,0.8,1.8,2.1,1.8,4
				c0,1.4-0.4,2.3-1.3,2.8c-1.7,1-5.7,1.6-11.9,1.9c-0.2,1.1-0.4,1.9-0.8,2.3c-0.2-0.4-0.3-1.2-0.3-2.6c0-0.8,0-1.4,0.1-1.6
				c0-0.1,0.1-0.2,0.1-0.3c0-0.9,0.1-1.5,0.1-2c0.1-1.6,1-2.9,2.5-4.1C888.6,438.7,891.8,438.6,893.7,439.9 M970.6,433h-1v0.4
				c-0.3-0.3-0.5-0.1-0.5,0.5c-0.3,0-0.5,0.4-0.5,1.3l0.6,2.7c0.2,0.9,0.4,1.5,0.6,1.9c0,0.1,0,0.1,0,0.2c0,0.3,0.3,0.5,0.6,0.6
				c0.2-0.1,0.5-0.1,0.9-0.2c1.3-0.3,2.9-0.3,5-0.1c0.8-0.1,1.9-0.1,3.2-0.1c2.9,0,4.9,0.1,6,0.4c0.7,0.1,1.3,0.3,1.8,0.5
				c0.2,0.3,0.5,0.6,0.8,1c0,0,0,0.1,0,0.1c0,0.1,0,0.3,0,0.5c0.1,0.1,0.3,0.3,0.4,0.4c0,0.2,0.1,0.3,0.1,0.5
				c0.2,0.3,0.3,0.7,0.3,1.1v0.4c0,0,0.1,0.1,0.1,0.1c0.1,0.1,0.2,0.3,0.3,0.5c-0.2,0.6-0.3,1.3-0.3,1.9v0.1c-0.1,0-0.1,0-0.2,0
				l-0.4-0.3v-0.1c-0.3-0.1-0.7-0.1-1.2-0.3c-1-0.2-2-0.4-2.8-0.5c-3.2-0.1-6.1,0.3-8.8,1.3c-0.6,0.1-1.1,0.2-1.7,0.4
				c-1,0.4-1.7,0.8-2.3,1.2c-0.1,0.1-0.3,0.1-0.5,0.3c-1.9,1-3,2-3.2,2.9c-0.8,0.9-1.2,1.7-1.2,2.5c0,0.3,0,0.6,0,0.8
				c-0.2,0.6-0.3,1.5-0.3,2.7c0,0.6,0,1.1,0.1,1.5c0,0.2,0,0.4,0,0.5c0,1,0.1,1.9,0.4,2.7c0.2,0.9,0.6,1.5,1,1.9
				c0.2,0.2,0.3,0.5,0.5,0.6c0.6,1,1.3,1.7,2.3,2.1c0.4,0.3,0.8,0.5,1.3,0.8c0.7,0.6,1.4,1,2.2,1.1c0.9,0.7,2.1,1.1,3.5,1.2
				c0.3,0.1,0.7,0.1,1.1,0.1h0c0.1,0,0.3,0,0.4,0c1.4,0,2.9-0.4,4.4-1.1c1.1-0.3,2.4-0.8,4-1.4c0.7-0.3,1.3-0.6,1.9-0.8
				c0.6-0.2,0.9-0.3,1-0.3l0.4,0c0,0.4-0.1,0.8-0.3,1.4c0.1,0.2,0.4,0.4,1,0.5c0.8-0.1,1.9-0.1,3.3,0h0c0.5-0.1,1-0.2,1.5-0.2
				c0.7-0.1,1.4-0.2,2.1-0.2c-0.1-0.1-0.1-0.3-0.2-0.4c0.1-0.1,0.2-0.2,0.3-0.3c0-1.1,0-2,0-2.7c-0.3-3.5-0.5-5.4-0.5-5.8
				c0.2-3.7,0.3-6.5,0.3-8.3c0-0.3,0-0.6,0-0.9c0.2-2,0.2-4.7,0.2-7.9c0-0.2-0.2-0.7-0.6-1.5c-0.1-0.6-0.3-1.4-0.8-2.4
				c-0.3-0.7-0.6-1.2-0.8-1.6c-0.2-0.3-0.3-0.6-0.5-0.8c-0.1-0.2-0.3-0.4-0.3-0.6c-1.3-2-3.7-3.3-7.3-3.8c-0.5,0-1,0-1.4,0.1
				c-2.6-0.5-5.4-0.7-8.5-0.6C974.5,431.8,971.9,432.3,970.6,433 M994.5,467.5c-0.1,0-0.1,0-0.2,0c0.1-0.1,0.1-0.1,0.2-0.1
				C994.5,467.4,994.5,467.5,994.5,467.5 M985.5,453h0.5c0.3,0.1,1.2,0.3,2.7,0.7c0.1,0,0.2,0.1,0.3,0.1c-0.1,1.2-0.1,2.8-0.1,4.7
				c0,1,0.1,1.9,0.2,2.6c-0.4,0.1-0.8,0.2-1.2,0.4c-3.1,1.1-5.6,1.6-7.5,1.6c-2,0-3.5-0.6-4.4-1.9c-0.1-0.1-0.2-0.2-0.2-0.4
				c-0.2-0.7-0.4-1.3-0.4-2c0.1-1,0.2-2,0.4-3c0-0.1,0-0.1,0.1-0.1c0.1-0.1,0.1-0.3,0.3-0.4c0.8-0.3,1.9-0.7,3.3-1.3
				c0.2-0.1,0.7-0.2,1.5-0.3c0,0,0-0.1,0-0.1c0.6-0.2,1.2-0.3,1.8-0.3c0.4-0.1,0.9-0.2,1.5-0.3C984.7,453.1,985.1,453.1,985.5,453
				 M990.5,460.6L990.5,460.6c0-0.1,0-0.1,0-0.1C990.5,460.5,990.5,460.5,990.5,460.6 M938.5,435.3c-0.3-0.4-0.6-0.7-1.1-1
				c-0.4-0.3-0.8-0.5-1.2-0.8c-0.5-0.7-1.6-1.1-3.4-1.4c-0.6-0.1-1.1-0.1-1.5-0.1c-4.2-0.6-8.5,0.2-12.8,2.5
				c-0.1-0.4-0.2-0.8-0.4-1.2c-0.3-0.7-0.7-1-1.3-1c-2.3,0-4,0.1-5,0.4c-0.2-0.1-0.3-0.2-0.5-0.3c-0.8-0.3-1.2,0-1.2,0.9
				c0,0.7,0.1,2.9,0.3,6.4c-0.2,1.4-0.3,3.3-0.3,5.8c0.1,2.2,0.2,4.6,0.5,7.2V465l-0.4,1.5c0.1,0.9,0.2,1.9,0.2,2.9v0.1
				c1.1-0.2,3-0.2,5.5,0.1c0.4,0.1,0.8,0.1,1.2,0.2c0.3-0.2,0.5-0.3,0.6-0.3c0.9,0,1.4-0.1,1.6-0.3c0.1-0.1,0.1-0.5,0.1-1.3
				c0-0.2,0-0.5,0-0.6c0-0.3,0.1-0.7,0.2-1.1c0-0.3-0.1-0.7-0.1-1v-17.4h0.1c0-0.3,0-0.6,0-0.9v-1.6c-0.1-0.6-0.2-1.2-0.3-1.9
				c-0.2-1.1-0.3-2.2-0.3-3.1c0-0.3,0-0.4,0.1-0.5c0,0,0.2-0.1,0.4-0.1c0.3,0.3,0.5,0.8,0.8,1.3c1.4-0.5,2.5-0.8,3.4-0.8
				c3.1,0,5,0.2,5.7,0.6c0.3,0.2,0.5,0.4,0.8,0.8c0,0.3,0,0.6,0,1c0,1.3,0.1,5,0.4,11.3c0.1,3,0.2,5.4,0.3,7.1
				c-0.2,3.4-0.3,5.8-0.3,7.2c0,0-0.1,0.1-0.3,0.4c-0.1,0.2,0,0.5,0.3,0.6c0.3,0.3,0.9,0.5,1.8,0.7c0.9-0.1,2-0.1,3.2-0.1
				c1.2,0,2.2,0.1,3,0.3c1.1-0.2,1.7-0.8,1.7-1.5c0-0.3-0.1-1.4-0.4-3.1c0-0.2,0-0.3,0-0.4l-0.2-7.8c0.1-1.2,0.1-2.1,0.1-2.6
				l-0.2-6.2c0.1-1.8,0.1-3.4,0.1-4.5c0-0.3,0-0.5,0-0.8c0-0.3,0-0.6,0.1-0.8c0.2-0.2,0.5-0.5,0.8-0.8l1-0.9c0.3-0.1,0.6-0.3,1-0.4
				c0.5-0.2,1-0.3,1.5-0.4c0.7-0.1,1.5-0.1,2.6-0.1c0.4,0,0.8-0.1,1.2-0.1c1.2,0.1,2.2,0.6,2.8,1.3c0,0.2,0.1,0.5,0.2,1.1
				c0,0.3,0,0.6,0,1c0,1.4,0.2,4.6,0.5,9.6c0,0.3,0,0.6,0,0.9c-0.1,0.5-0.1,1.1-0.1,1.8c0,1.3,0,2.7,0.2,4.2v5.1
				c0,0.1,0.1,0.3,0.1,0.4c-0.2,0.9-0.4,2.2-0.7,3.8c0,0,0,0.1,0,0.1c0.3,0,0.6,0.1,1,0.3c0.5,0,1,0,1.6,0c0.3,0,0.7,0,1,0
				c0.2,0,0.3,0,0.4,0c1,0,1.9,0,2.8,0c0,0.1,0,0.1,0.1,0.2c0.3,0,0.5,0,0.8,0c0.2,0,0.5,0.1,0.7,0.1c0.1-0.1,0.1-0.1,0.2-0.2
				c0.1,0,0.2,0,0.3,0c0.8,0,1.1-0.5,1.1-1.3c0-0.2-0.1-0.4-0.1-0.5v-0.1c0-1.2,0-1.8,0-2c0-0.6,0-1.1,0-1.4
				c0.1-0.5,0.2-0.9,0.3-1.2v-10.2c-0.2-3.6-0.3-5.5-0.3-5.5c0-0.8,0-1.5,0-2.3c-0.2-2.5-0.3-4.6-0.4-6.2c-0.3-0.8-0.7-1.9-1.3-3.3
				c-0.7-0.6-1.4-1.4-2.3-2.3c-0.5-0.4-0.9-0.8-1.3-1.2c-0.3-0.1-0.5-0.3-0.8-0.4c-0.1-0.1-0.2-0.1-0.3-0.1
				c-1.9-0.3-4.4-0.1-7.4,0.6c-2.5,0.6-4.8,1.5-6.9,2.5C939.3,434.8,938.9,435,938.5,435.3 M916.8,453.5L916.8,453.5
				c0,0.3,0,0.6,0,0.9C916.7,454.1,916.7,453.9,916.8,453.5 M932.3,467.9c0,0,0.1,0,0.2,0.1h-0.2L932.3,467.9z"/>
		</g>
	</g>
</g>
</svg>
