<?xml version="1.0" encoding="utf-8"?>
<!-- Generator: Adobe Illustrator 17.1.0, SVG Export Plug-In . SVG Version: 6.00 Build 0)  -->
<!DOCTYPE svg PUBLIC "-//W3C//DTD SVG 1.1//EN" "http://www.w3.org/Graphics/SVG/1.1/DTD/svg11.dtd">
<svg version="1.1" id="Слой_1" xmlns="http://www.w3.org/2000/svg" xmlns:xlink="http://www.w3.org/1999/xlink" x="0px" y="0px"
	 viewBox="0 0 1200 800" enable-background="new 0 0 1200 800" xml:space="preserve">
<path fill="#A00000" d="M625.4,358c-4.8-3.9-10.6-5.7-17.6-5.4c-6.9,0.3-12.7,2.5-17.5,6.8c-5.3,4.6-8,10.7-8,18.1
	c0,0.2,0,1.6,0,4.3c0,0.1,0,0.1,0,0.2c0.3,3.1,1.1,5.9,2.4,8.5c4.1,8.1,12.6,12.2,25.5,12.2c9,0,15.5-3.9,19.5-11.7
	c2.4-4.6,3.5-9.5,3.5-14.6C633.3,368.5,630.7,362.4,625.4,358z M622.1,385.7c-2.4,5.2-7.1,7.8-13.9,7.8c-7.4,0-12.4-2.4-15-7.2
	c-1.2-2.3-1.9-5.1-1.9-8.5c0-1.9,1-4.3,3-7.2c1.9-2.7,3.8-4.7,5.8-6.1c0.2-0.1,0.4-0.2,0.7-0.2l1.6-0.2c1.4-0.1,2.4-0.2,3-0.2
	c1.4,0,2.8,0.5,4.5,1.5c1.6,1,2.4,1.5,2.4,1.5c0.6,0,1-0.1,1.2-0.2c0.1-0.1,0.1-0.2,0-0.3c0-0.1-0.3-0.6-0.8-1.5
	c-0.6-0.9-0.9-1.4-1-1.5l0.1-0.8c2.5-0.1,5.2,1.9,8,6c2.5,3.7,3.8,6.4,3.8,8.3C623.8,380.3,623.2,383.3,622.1,385.7z"/>
<path fill="#A00000" d="M514.9,454.8c-0.1,0.5-0.2,0.8-0.2,1.2c0,0.8,0.3,2,0.8,3.4c0,0.1,0.1,0.2,0.2,0.3c0.8,1.2,1.7,2.6,2.7,4.2
	c1.5,2.2,3.8,5.1,6.9,8.8c0.1,0.1,0.1,0.1,0.2,0.2c0.3,0.3,0.7,0.6,1,0.9c0.7,0.6,1.3,1.1,1.8,1.5c0.3,0.2,0.6,0.4,1,0.4
	c0.3,0,0.6,0,0.8,0c0.3,0,0.5,0,0.8-0.1c1.3-0.6,2.5-1.2,3.8-1.8c0,0,0.1,0,0.1,0c2.3-0.9,4.5-1.8,6.5-2.9c0.4-0.2,0.8-0.3,1.2-0.5
	c0.1,0.1,0.1,0.1,0.2,0.2c5.9-2.6,9.6-4,11.1-4.4c0.3-0.1,2.1-0.4,5.2-1c3.1-0.7,4.9-1.5,5.4-2.2c0.9-1.3,2.8-3.7,5.7-7.3
	c0,0,0.1-0.1,0.1-0.1c0.3-0.3,0.6-0.5,0.8-0.8c0.7-0.7,1.9-0.5,2.4,0.4c0.9,1.7,2.1,4,3.4,6.8c0,0.1,0.1,0.2,0.1,0.2
	c0.6,2.1,1.1,3.8,1.6,5.3c0,0.2,0,0.5,0.1,0.7c-0.6,4.3-1,7.9-1.2,11c0,0.6-0.1,1.2-0.2,1.8c-0.1,0.3-0.2,0.6-0.2,0.8
	c-0.2,0-0.4-0.1-0.7-0.1c-2.4-0.6-4.2-0.8-5.4-0.8c-0.2-0.1-0.5-0.1-0.7-0.1c-0.5-0.1-0.9-0.1-1.2,0c-0.3-0.1-0.5-0.1-0.6-0.1
	c-0.9,0-1.5,0.6-1.8,1.8c-0.1,0.4-0.3,0.8-0.5,1.1c0,0-0.1-0.1-0.2-0.1c-0.3-0.1-0.7-0.2-1.1-0.3c0,0-0.1,0.1-0.2,0.2
	c-1-0.2-2.1-0.4-3.5-0.5c-1.3-0.1-2.5-0.2-3.5-0.2c-0.3,0-0.6-0.1-0.9-0.2c-1.4-0.2-3.8-0.5-7.1-1c-3.3-0.5-5.6-0.8-6.9-0.9
	c-0.1,0-0.1,0-0.2,0c-0.8,0-1.6,0.1-2.3,0.1c-0.5,0-1.1,0-1.7,0.1c-1.4,0.1-2.8,0.2-4.2,0.4c-0.1,0.1-0.2,0.3-0.3,0.4
	c-1.1,1.3-1.7,2.5-1.7,3.6c0,1.4,0.3,2.9,0.8,4.5c0,0.1,0.1,0.2,0.1,0.3c0.4,0.7,0.7,1.2,0.8,1.4c0,0,0,0.1,0.1,0.1
	c0.7,1.3,1.6,3.1,2.9,5.4c1.1,2,2.2,3.9,3.3,5.5c1.2,2,3.8,5.8,7.6,11.5c0,0.1,0.1,0.1,0.2,0.2c0.4,0.4,0.8,0.8,1.2,1.2
	c0.2,0.2,0.3,0.5,0.5,0.8c1.6,2.4,2.8,3.6,3.4,3.6c0.1,0,0.1,0,0.2,0c0.4,0.4,0.9,0.6,1.5,0.6c0.1,0,0.2,0,0.3,0
	c0.4,0.2,1,0.2,1.7,0.2c0.1,0,0.2-0.1,0.5-0.2c1.8,0,4.2-0.6,7.2-1.8c0.7-0.3,1.6-0.7,2.7-1.1c2.5-0.9,5.8-2.1,9.7-3.6
	c0.1,0,0.1,0,0.2,0c1.7-0.6,3.4-1.2,5.2-1.8c5.3-1.5,9.2-2.2,11.7-2c0.2-0.1,0.5-0.2,0.7-0.2c1.4-0.3,2.5-0.4,3.2-0.1
	c1.2-0.2,2.7-0.2,4.5,0.1c1.7,0.3,3.5,0.8,5.6,1.4c0,0,0.1,0,0.1,0c1.4,0.3,3.9,0.8,7.2,1.6c2.2,0.5,4.2,0.9,6,1.3
	c2.8,0.4,6.2,0.9,10.2,1.5c5.9,0.8,10.4,1.5,13.6,2l2.8,0.5c1.1,0.1,2.2,0.3,3.3,0.5c0.1,0,0.2,0,0.2,0h1.5c0.2,0,0.4,0,0.6,0.1
	c0.3,0.1,0.5,0.2,0.8,0.3c0.1,0,0.2,0.1,0.3,0.1c1.1,0.2,2.3,0.4,3.6,0.6c0.7,0.1,3.1,0.4,7.2,0.9c0.5,0.1,1.1-0.1,1.4-0.6
	c0.8-1.1,1.7-2.9,2.5-5.5c0.5-1.5,1.2-4.3,2.2-8.5c0.1-0.2,0.1-0.5,0.2-0.6c1.7-4.6,2.6-6.9,2.6-7c0.8-2.1,1.2-3.4,1.5-4
	c0.6-1.6,1-2.9,1.2-4c0.2-0.8,0.5-1.6,1-2.4c0.1-0.1,0.1-0.2,0.2-0.3c0.3-1.1,0.6-2.1,0.9-3c-0.2-0.9-0.4-1.6-0.6-2.5
	c-0.1-0.1-0.2-0.3-0.3-0.4c-0.2-0.3-0.4-0.6-0.5-0.8c-0.1,0-0.2,0-0.3,0c-0.1,0-0.1,0-0.1,0c-0.7-0.7-2-1-4.1-1c-0.1,0-0.2,0-0.3,0
	c-0.3,0-0.5-0.1-0.8-0.1c-0.3,0.1-0.7,0.1-1,0.2c-0.2,0-0.3,0-0.4,0c-2.5-0.2-6,0-10.5,0.7c-0.3,0.1-0.6,0.1-0.8,0.2
	c-4.6,0.5-8.7,1.1-12.3,1.8c-0.2,0-0.4,0.1-0.5,0.1c-0.2,0-0.4,0-0.6,0c-1.2,0.3-2,0.4-2.6,0.5c-0.1,0-0.1,0-0.2,0
	c-0.4,0-0.8,0-1.2,0c-0.7,0-1.4-0.5-1.6-1.2c-0.1-0.3-0.2-0.7-0.2-1.1c-0.5-2.2-0.8-4-1-5.1c-0.1-0.6-0.1-1-0.1-1.4
	c0-0.1,0-0.1,0-0.2L639,473c-0.2-1.8-0.3-3.2-0.4-4.2c0-0.2-0.1-0.4-0.1-0.5c1.1-2.7,1.9-4.7,2.4-6c0-0.1,0-0.1,0.1-0.2
	c0.3-1.2,0.6-2.3,0.9-3.3c0-0.1,0-0.1,0-0.2c0.9-1.7,1.6-3.1,2.3-4.4c0.2,0.3,0.5,0.7,0.8,1.1c1.7,2.1,2.9,3.9,3.7,5.5
	c0.6,1.3,3.4,2.5,8.2,3.7c0.1,0,0.1,0,0.2,0c1.7,0.9,4,2,7,3.1c4.2,1.6,7.5,2.7,9.7,3.3c0.1,0,0.1,0,0.2,0.1
	c1.9,0.8,3.8,1.7,5.7,2.8c1.4,0.7,3.1,1.6,5,2.7c0,0,0.1,0,0.2,0c0.2,0.1,0.3,0.3,0.5,0.4c0.7,0.6,1.5,1,2.4,1.2
	c0.5,0.1,1.1,0,1.5-0.3c0.6-0.5,1.2-1,1.8-1.5c0.1-0.1,0.2-0.1,0.2-0.2c3.8-4.7,6.3-7.9,7.3-9.4c2.3-3.4,4.1-6.6,5.5-9.5
	c-0.1-1.1-0.7-1.8-1.6-2.1c-0.3-0.1-0.6-0.3-0.8-0.5c-1.3-1.5-3.8-3.1-7.5-4.8L666,437.9c-0.4-0.6-0.7-1.3-1.1-2.1
	c0-0.1-0.1-0.2-0.2-0.3c-1.5-2-3.4-4.6-5.7-7.8l-3.5-5.2c0,0,0-0.1-0.1-0.1c-0.7-0.9-1.5-2-2.4-3.1v-0.2c-2.4-2.9-4.3-5.2-5.8-6.7
	c-0.2-0.2-0.6-0.5-0.8-0.7c-0.6-0.4-1.3-1.1-2.1-1.9c-0.2-0.1-0.4-0.3-0.5-0.5c-2.2-0.2-4.2-0.3-6-0.4c-0.1,0-0.2,0-0.3,0
	c-0.4,0.1-0.7,0.1-1.1,0.2c-0.1,0-0.2,0-0.3,0l-46-0.9c-0.2-0.1-0.5-0.3-0.7-0.5c-0.9,0.1-1.7,0.1-2.5,0.2
	c-2.3,0.2-6.7,0.8-13.2,1.7c-0.3,0-0.6,0.1-0.9,0.1c-0.4,0.1-0.7,0.3-0.9,0.6c-2.5,3.2-4.9,6.5-7.1,9.9c-2,2.9-4.9,6.7-8.7,11.3
	c-1.8,2.2-3.3,3.9-4.4,5.1c-0.1,0.1-0.2,0.2-0.2,0.3c-0.7,1.3-1.4,2.3-2.2,3c-0.7,0.5-1.2,0.8-1.5,1c-1.2,0.5-3.1,1.2-5.6,2
	c-2.8,1-4.7,1.7-5.9,2.2 M561.8,509.6c-1,0.4-2.1,0.8-3.3,1.3c-0.7,0.3-1.5,0.1-1.9-0.5c-0.5-0.7-1-1.4-1.6-2.3
	c-0.4-0.6-0.8-1.1-1.1-1.6c-1.5-2.6-2.6-4.6-3.4-6.1c-1.9-4-3.9-7.7-6.1-11c-0.1-0.2-0.2-0.4-0.3-0.5h1.9c0.1,0,0.2,0,0.2,0
	c2.1,0.4,4.8,0.7,7.9,1c3.9,0.4,7.4,0.7,10.3,0.8c0.7,0,1.2,0.5,1.4,1.2c0,0,0,0,0,0.1c0,0,0,0.1,0,0.1c0.9,2.8,1.8,5.1,2.6,6.6
	c0,0.1,0.1,0.1,0.1,0.2c0.7,2,1.3,3.6,1.9,4.8c-0.1,0.1-0.2,0.1-0.3,0.1c0.2,0.1,0.3,0.2,0.5,0.3c0.4,0.7,0.8,1.4,1.2,1.9
	c-0.1,0-0.2,0-0.2,0c0.1,0.1,0.2,0.3,0.3,0.5C565.7,508.5,562.2,509.5,561.8,509.6z M647.9,491.1c0.1,0,0.1,0,0.2,0h2.1
	c2.5,0,5.8-0.4,9.8-1.3c0.1,0,0.2,0,0.3,0l6.1,0.1c0-0.1,0.1-0.1,0.1-0.2c0.4,0,0.8,0.1,1.3,0.1c-1.3,4.6-3,9.9-5.1,15.8
	c-0.4,1.2-0.8,2.3-1.2,3.3c-0.2,0.7-1,1.1-1.7,1c-1.9-0.4-4.4-0.7-7.4-0.9c-1.4-0.1-2.8-0.2-4.1-0.3c-0.1,0-0.1,0-0.2,0
	c-8.1-1.6-14.7-2.6-19.7-3.2c-3-0.3-7.2-0.8-12.5-1.6c-6-0.9-10.3-1.6-13-2c-2.9-0.4-5.3-0.7-7.3-0.8c-0.1,0.1-0.1,0.1-0.2,0.1v0
	c-0.4-0.2-0.9-0.2-1.5-0.2c0.3-0.1,0.6-0.2,0.8-0.3c-2.3,0-5.8,0.5-10.4,1.5c-0.8,0.2-1.5,0.4-2.2,0.5c-0.7,0.2-1.4-0.1-1.7-0.7
	c-0.1-0.2-0.2-0.3-0.3-0.5c-1.7-2.8-2.7-4.6-3.2-5.4c0-0.1-0.1-0.1-0.1-0.2c-0.1-0.4-0.3-0.7-0.4-1.1c0-0.1,0-0.1-0.1-0.2
	c-0.1-0.3-0.2-0.6-0.2-1c-0.3-1.2,0.8-2.2,1.9-1.8c0.7,0.2,1.3,0.3,1.9,0.3c1.7,0,4.3,0.6,7.8,1.7c1.7,0.6,3.4,1.1,5.1,1.6
	c0.1,0,0.2,0,0.3,0c0.9,0.2,1.6,0.4,2,0.4c0.4,0,0.7-0.1,1-0.2h1c0.4,0,0.7,0,1.1-0.1c0.1,0,0.2,0,0.2,0c0.6,0,1.2,0,1.9,0
	c7.1,0,17.5-0.8,31.5-2.4C637.9,492.5,643.3,491.8,647.9,491.1z M691.2,460.3c0,0.1,0,0.1-0.1,0.1h0c-1.2,1.6-2.3,3.2-3.3,4.6
	c-0.3,0.5-0.6,0.9-0.9,1.3c-0.4,0.6-1.3,0.8-1.9,0.5c-5.3-2.6-8.4-4.1-9.1-4.6c-1.4-0.5-2.8-1-4.1-1.4c0,0-0.1,0-0.1,0
	c-1.8-0.8-3.6-1.6-5.5-2.4c-3-1.2-5.5-2.1-7.3-2.5c-0.3-0.1-0.6-0.2-0.8-0.5c-0.9-1-2.1-2.2-3.5-3.6c-0.1-0.1-0.1-0.1-0.2-0.2
	c-1.6-2.2-3.1-4.2-4.5-5.9c-2.8-3.4-5-5.6-6.6-6.6c-0.3-0.2-0.6-0.3-0.8-0.4c-0.1,0-0.2-0.1-0.2-0.1c0,0.1-0.1,0.1-0.1,0.2
	c-0.4,0.1-0.8,0.3-1.3,0.7c-1.5,1.1-2.4,2-2.6,2.9l0,0l-0.2,0.8c0.1,0.2,0.2,0.5,0.3,0.8c0.2,0.5,0.2,1-0.1,1.5
	c-1,1.5-2.1,3.5-3.2,6.1c-1.4,3.3-3.3,8.2-5.8,14.9l0.1,0.5l0.2,0.1c0,2.2,0.4,6.1,1.1,11.8c0.2,1.6,0.4,2.9,0.6,4.1
	c0.1,0.8-0.4,1.5-1.1,1.7c-0.5,0.1-1.1,0.3-1.8,0.4c-0.2,0-0.4,0.1-0.5,0.1c-1.5,0.4-3.3,0.7-5.5,1.1c-0.9,0.2-1.7,0.3-2.5,0.4
	c-0.1,0-0.2,0-0.2,0h-1.1c0,0-0.1,0-0.1,0c-0.6,0.1-3,0.3-7.4,0.8c-6.3,0.5-10.7,0.9-13.1,1.1c-0.1,0-0.2,0-0.3,0.1
	c-0.8-0.3-1.7-0.7-2.7-1c-1.1-0.4-2.1-0.7-3-1c-0.1,0-0.1,0-0.2-0.1c-0.7-0.3-1.5-0.6-2.4-1c-0.4-0.2-0.9-0.3-1.3-0.5
	c-0.4-0.3-0.5-0.6-0.5-0.8c0-0.2,0-0.4,0.1-0.5c-0.2-0.4-0.3-0.8-0.3-1.2c0.5-3.5,0.9-8.6,1.4-15.4c0-1.1-0.2-1.6-0.5-1.6
	c-0.8-2.1-2.7-6.1-5.6-12.1c-0.1-0.2-0.2-0.3-0.2-0.5c-0.3-0.7-0.6-1.5-0.9-2.2c-1.2-2.9-2.2-5.1-3-6.6c0.2-0.1,0.4-0.4,0.6-0.8
	c0.3-0.6,0.4-0.9,0.4-1c0-0.9-0.9-2-2.7-3.2c-0.5-0.4-0.9-0.6-1.3-0.7c-0.1-0.1-0.1-0.1-0.2-0.2c-0.1,0-0.2,0.1-0.2,0.1
	c-0.2,0.1-0.5,0.2-0.8,0.4c-1.7,1-3.9,3.2-6.6,6.6c-1.1,1.4-2.3,2.9-3.5,4.6c-0.1,0.1-0.1,0.2-0.2,0.2c-0.3,0.3-0.5,0.5-0.7,0.7
	c-2.4,2.3-4.1,3.9-5.1,4.9c-0.2,0.2-0.3,0.3-0.6,0.3c-2.1,0.7-4.4,1.6-7.1,2.5c-2.8,1-5.3,2-7.5,2.9c0,0-0.1,0-0.1,0
	c-0.4,0.1-0.8,0.3-1.2,0.4c-0.1,0-0.2,0.1-0.3,0.2l-0.1,0c-0.1,0-0.2,0.1-0.3,0.1c-2.8,0.8-5.4,1.7-7.9,2.8c-0.5,0.2-1,0.1-1.5-0.2
	c-0.3-0.2-0.6-0.4-0.8-0.6c-0.1-0.1-0.2-0.2-0.3-0.3c-0.6-0.8-1.1-1.5-1.7-2.2c-1-1.3-1.8-2.3-2.4-2.9c0-0.1-0.1-0.2-0.1-0.2
	c3-1.1,7.4-2.6,13.1-4.6c6.9-2.4,11.4-4.2,13.6-5.4c0.1,0,0.1-0.1,0.2-0.1c1.9-0.6,3.3-1.5,4.1-2.6c0.3-0.4,0.7-1.3,1.4-2.8
	c0.3-0.7,0.7-1.4,1.1-1.9c2.7-2.8,5.1-5.8,7.3-9.1c0,0,0.1-0.1,0.1-0.1c0.9-1.1,1.9-2.3,3-3.5c3.2-3.7,5.9-7,8.3-10
	c0.3-0.3,0.6-0.5,1.1-0.5c2.2-0.2,5-0.4,8.5-0.8c0.4,0,0.7,0,1.1,0c2.1,0,5.7-0.1,10.9-0.6c0,0,0.1,0,0.1,0l10.6,0.1
	c0,0,0.1,0,0.1,0l23.4,1.5c0.9,0,1.6,0,2.1-0.1c0.1,0,0.3,0,0.4,0c1.6,0.2,2.9,0.3,3.9,0.4c0.4,0,0.8,0.3,1.1,0.6
	c0.4,0.5,0.8,1.1,1.3,1.7c0.1,0.1,0.2,0.2,0.2,0.3c0.1,0.2,0.2,0.3,0.4,0.5c0.3,0.5,0.6,1,0.9,1.5c0,0.1,0.1,0.1,0.1,0.2
	c0.3,0.3,0.6,0.7,0.9,1.1c0.1,0.1,0.1,0.2,0.2,0.3c0.3,0.4,0.7,0.8,1,1.3c0.1,0.1,0.2,0.2,0.3,0.3c1.1,1.7,2.4,3.7,3.8,5.9
	c4.4,6.7,7.7,11.1,9.7,13.1c0.2,0.2,0.3,0.3,0.5,0.5c0.6,0.5,1.1,0.8,1.4,0.8c0,0,0.1,0,0.1,0c0.3,0.1,0.6,0.3,0.9,0.4
	c1.7,1.6,3.4,2.5,5.4,2.8c0.1,0,0.2,0,0.3,0.1c0.7,0.3,1.5,0.6,2.4,0.9c2.2,0.8,5.3,1.8,9.3,3.1c0,0,0.1,0,0.1,0.1
	c0.5,0.2,1,0.4,1.6,0.7c1,0.4,2,0.8,3,1.1c1.8,0.8,3.4,1.5,4.9,2.1C691.2,458.5,691.5,459.5,691.2,460.3z"/>
</svg>
